<svg width="65" height="65" viewBox="0 0 65 65" fill="none" xmlns="http://www.w3.org/2000/svg">
<g opacity="0.28" clip-path="url(#clip0_932_3787)" filter="url(#filter0_f_932_3787)">
<path d="M17.7337 49.2344C17.7337 50.2997 17.5176 51.3538 17.0984 52.3331C16.6793 53.3125 16.0658 54.1966 15.2951 54.9319C14.5244 55.6673 13.6125 56.2387 12.6146 56.6115C11.6167 56.9843 10.5536 57.1507 9.48953 57.1008C4.12223 56.8547 0.480039 51.2881 2.58906 46.2148C3.58336 43.8063 4.04832 41.2121 3.95242 38.6081C3.92457 37.809 4.05926 37.0126 4.34833 36.2671C4.63739 35.5216 5.07482 34.8425 5.6341 34.2711C6.19338 33.6997 6.86286 33.2478 7.60197 32.9427C8.34108 32.6377 9.13442 32.4859 9.93393 32.4966C10.7334 32.5073 11.5224 32.6802 12.2532 33.0048C12.9839 33.3295 13.641 33.7991 14.1849 34.3853C14.7287 34.9714 15.1478 35.6619 15.4169 36.4148C15.686 37.1678 15.7993 37.9675 15.7502 38.7656C15.5988 41.2991 16.1193 43.8265 17.1037 46.1644C17.518 47.135 17.7323 48.1791 17.7337 49.2344Z" fill="#73CAB2"/>
<path d="M16.7503 50.2188V53.0488C16.1507 54.1334 15.3034 55.0609 14.2773 55.7558C13.2512 56.4507 12.0755 56.8934 10.8459 57.0476C9.61628 57.2019 8.36763 57.0634 7.20171 56.6435C6.03579 56.2235 4.98559 55.5341 4.13672 54.6312C5.33605 53.2456 6.81955 52.1344 8.48645 51.373C10.1533 50.6117 11.9646 50.218 13.7971 50.2188H16.7503Z" fill="#64AF93"/>
<path d="M9.85912 58.0937C8.71999 58.0952 7.59151 57.8745 6.53685 57.444C6.41074 57.4003 6.29484 57.3313 6.19621 57.2414C6.09758 57.1514 6.01827 57.0423 5.96312 56.9208C5.90796 56.7992 5.8781 56.6677 5.87537 56.5342C5.87263 56.4008 5.89706 56.2682 5.94719 56.1444C5.99731 56.0207 6.07208 55.9085 6.16694 55.8145C6.2618 55.7206 6.37477 55.647 6.49898 55.5981C6.6232 55.5492 6.75606 55.5261 6.88949 55.5301C7.02292 55.5342 7.15413 55.5653 7.27514 55.6217C8.53811 56.1322 9.92407 56.2569 11.2579 55.9801C12.5917 55.7032 13.8135 55.0372 14.769 54.0662C15.7244 53.0952 16.3707 51.8628 16.626 50.5247C16.8813 49.1866 16.7342 47.8028 16.2034 46.5482C14.3331 42.1407 14.8191 39.0657 14.7712 38.1404C14.7045 36.8429 14.1275 35.6244 13.166 34.7506C12.2045 33.8768 10.9365 33.4187 9.63858 33.476C8.34063 33.5333 7.118 34.1015 6.2373 35.0567C5.3566 36.0118 4.88928 37.2765 4.93725 38.5748C5.03924 41.3204 4.54602 44.0555 3.49144 46.5925C3.08563 47.5698 2.91102 48.6276 2.98124 49.6835C3.05146 50.7393 3.36461 51.7647 3.89627 52.6797C4.0106 52.9042 4.03447 53.164 3.96297 53.4056C3.89148 53.6472 3.73006 53.8522 3.51195 53.9784C3.29385 54.1046 3.03567 54.1423 2.79058 54.0838C2.5455 54.0253 2.33217 53.8751 2.19453 53.664C1.51097 52.4869 1.10847 51.1677 1.0184 49.8095C0.92833 48.4512 1.15313 47.0905 1.67527 45.8333C2.62006 43.5573 3.06123 41.1038 2.9685 38.6412C2.93543 37.6939 3.0982 36.7498 3.44662 35.8682C3.79505 34.9866 4.32163 34.1864 4.99345 33.5176C5.66526 32.8488 6.46784 32.3258 7.351 31.9813C8.23416 31.6368 9.1789 31.4783 10.1261 31.5156C13.884 31.6583 16.9725 34.9117 16.7374 38.8197C16.5996 41.1071 17.0315 43.4475 18.0184 45.7743C20.5125 51.6584 16.1505 58.0937 9.85912 58.0937Z" fill="black"/>
<path d="M9.85938 64C9.5983 64 9.34792 63.8963 9.16332 63.7117C8.97871 63.5271 8.875 63.2767 8.875 63.0156V47.2656C8.875 47.0046 8.97871 46.7542 9.16332 46.5696C9.34792 46.385 9.5983 46.2812 9.85938 46.2812C10.1204 46.2812 10.3708 46.385 10.5554 46.5696C10.74 46.7542 10.8438 47.0046 10.8438 47.2656V63.0156C10.8438 63.2767 10.74 63.5271 10.5554 63.7117C10.3708 63.8963 10.1204 64 9.85938 64Z" fill="black"/>
<path d="M13.7969 5.92188H51.2031V63.0156H13.7969V5.92188Z" fill="#EAF2FF"/>
<path d="M13.7969 60.0625H51.2031V63.0156H13.7969V60.0625Z" fill="#C1D1F7"/>
<path d="M51.2031 64H13.7969C13.5358 64 13.2854 63.8963 13.1008 63.7117C12.9162 63.5271 12.8125 63.2767 12.8125 63.0156V5.92188C12.8125 5.6608 12.9162 5.41042 13.1008 5.22582C13.2854 5.04121 13.5358 4.9375 13.7969 4.9375H51.2031C51.4642 4.9375 51.7146 5.04121 51.8992 5.22582C52.0838 5.41042 52.1875 5.6608 52.1875 5.92188C52.1875 6.18295 52.0838 6.43333 51.8992 6.61793C51.7146 6.80254 51.4642 6.90625 51.2031 6.90625H14.7812V62.0312H50.2188V9.85938C50.2188 9.5983 50.3225 9.34792 50.5071 9.16332C50.6917 8.97871 50.9421 8.875 51.2031 8.875C51.4642 8.875 51.7146 8.97871 51.8992 9.16332C52.0838 9.34792 52.1875 9.5983 52.1875 9.85938V63.0156C52.1875 63.2767 52.0838 63.5271 51.8992 63.7117C51.7146 63.8963 51.4642 64 51.2031 64Z" fill="black"/>
<path d="M63.0156 64H1.98438C1.7233 64 1.47292 63.8963 1.28832 63.7117C1.10371 63.5271 1 63.2767 1 63.0156C1 62.7546 1.10371 62.5042 1.28832 62.3196C1.47292 62.135 1.7233 62.0312 1.98438 62.0312H63.0156C63.2767 62.0312 63.5271 62.135 63.7117 62.3196C63.8963 62.5042 64 62.7546 64 63.0156C64 63.2767 63.8963 63.5271 63.7117 63.7117C63.5271 63.8963 63.2767 64 63.0156 64Z" fill="black"/>
<path d="M11.8281 1.98438H53.1719V5.92188H11.8281V1.98438Z" fill="#596060"/>
<path d="M53.1719 6.90625H11.8281C11.5671 6.90625 11.3167 6.80254 11.1321 6.61793C10.9475 6.43333 10.8438 6.18295 10.8438 5.92188V1.98438C10.8438 1.7233 10.9475 1.47292 11.1321 1.28832C11.3167 1.10371 11.5671 1 11.8281 1H53.1719C53.4329 1 53.6833 1.10371 53.8679 1.28832C54.0525 1.47292 54.1562 1.7233 54.1562 1.98438V5.92188C54.1562 6.18295 54.0525 6.43333 53.8679 6.61793C53.6833 6.80254 53.4329 6.90625 53.1719 6.90625ZM12.8125 4.9375H52.1875V2.96875H12.8125V4.9375Z" fill="black"/>
<path d="M11.8281 20.6875H53.1719V24.625H11.8281V20.6875Z" fill="#596060"/>
<path d="M53.1719 25.6094H11.8281C11.5671 25.6094 11.3167 25.5057 11.1321 25.3211C10.9475 25.1365 10.8438 24.8861 10.8438 24.625V20.6875C10.8438 20.4264 10.9475 20.176 11.1321 19.9914C11.3167 19.8068 11.5671 19.7031 11.8281 19.7031H53.1719C53.4329 19.7031 53.6833 19.8068 53.8679 19.9914C54.0525 20.176 54.1562 20.4264 54.1562 20.6875V24.625C54.1562 24.8861 54.0525 25.1365 53.8679 25.3211C53.6833 25.5057 53.4329 25.6094 53.1719 25.6094ZM12.8125 23.6406H52.1875V21.6719H12.8125V23.6406Z" fill="black"/>
<path d="M11.8281 39.3906H53.1719V43.3281H11.8281V39.3906Z" fill="#596060"/>
<path d="M53.1719 44.3125H11.8281C11.5671 44.3125 11.3167 44.2088 11.1321 44.0242C10.9475 43.8396 10.8438 43.5892 10.8438 43.3281V39.3906C10.8438 39.1296 10.9475 38.8792 11.1321 38.6946C11.3167 38.51 11.5671 38.4062 11.8281 38.4062H53.1719C53.4329 38.4062 53.6833 38.51 53.8679 38.6946C54.0525 38.8792 54.1562 39.1296 54.1562 39.3906V43.3281C54.1562 43.5892 54.0525 43.8396 53.8679 44.0242C53.6833 44.2088 53.4329 44.3125 53.1719 44.3125ZM12.8125 42.3438H52.1875V40.375H12.8125V42.3438Z" fill="black"/>
<path d="M26.5938 49.2344H38.4062V63.0156H26.5938V49.2344Z" fill="#A8EDFD"/>
<path d="M26.5938 60.0625H38.4062V63.0156H26.5938V60.0625Z" fill="#8BD4DE"/>
<path d="M38.4062 64H26.5938C26.3327 64 26.0823 63.8963 25.8977 63.7117C25.7131 63.5271 25.6094 63.2767 25.6094 63.0156V49.2344C25.6094 48.9733 25.7131 48.7229 25.8977 48.5383C26.0823 48.3537 26.3327 48.25 26.5938 48.25H38.4062C38.6673 48.25 38.9177 48.3537 39.1023 48.5383C39.2869 48.7229 39.3906 48.9733 39.3906 49.2344V63.0156C39.3906 63.2767 39.2869 63.5271 39.1023 63.7117C38.9177 63.8963 38.6673 64 38.4062 64ZM27.5781 62.0312H37.4219V50.2188H27.5781V62.0312Z" fill="black"/>
<path d="M18.7188 12.8125H24.625V20.6875H18.7188V12.8125Z" fill="#A8EDFD"/>
<path d="M18.7188 17.7344H24.625V20.6875H18.7188V17.7344Z" fill="#8BD4DE"/>
<path d="M24.625 21.6719H18.7188C18.4577 21.6719 18.2073 21.5682 18.0227 21.3836C17.8381 21.199 17.7344 20.9486 17.7344 20.6875V12.8125C17.7344 12.5514 17.8381 12.301 18.0227 12.1164C18.2073 11.9318 18.4577 11.8281 18.7188 11.8281H24.625C24.8861 11.8281 25.1365 11.9318 25.3211 12.1164C25.5057 12.301 25.6094 12.5514 25.6094 12.8125V20.6875C25.6094 20.9486 25.5057 21.199 25.3211 21.3836C25.1365 21.5682 24.8861 21.6719 24.625 21.6719ZM19.7031 19.7031H23.6406V13.7969H19.7031V19.7031Z" fill="black"/>
<path d="M29.5469 12.8125H35.4531V20.6875H29.5469V12.8125Z" fill="#A8EDFD"/>
<path d="M29.5469 17.7344H35.4531V20.6875H29.5469V17.7344Z" fill="#8BD4DE"/>
<path d="M35.4531 21.6719H29.5469C29.2858 21.6719 29.0354 21.5682 28.8508 21.3836C28.6662 21.199 28.5625 20.9486 28.5625 20.6875V12.8125C28.5625 12.5514 28.6662 12.301 28.8508 12.1164C29.0354 11.9318 29.2858 11.8281 29.5469 11.8281H35.4531C35.7142 11.8281 35.9646 11.9318 36.1492 12.1164C36.3338 12.301 36.4375 12.5514 36.4375 12.8125V20.6875C36.4375 20.9486 36.3338 21.199 36.1492 21.3836C35.9646 21.5682 35.7142 21.6719 35.4531 21.6719ZM30.5312 19.7031H34.4688V13.7969H30.5312V19.7031Z" fill="black"/>
<path d="M40.375 12.8125H46.2812V20.6875H40.375V12.8125Z" fill="#A8EDFD"/>
<path d="M40.375 17.7344H46.2812V20.6875H40.375V17.7344Z" fill="#8BD4DE"/>
<path d="M46.2812 21.6719H40.375C40.1139 21.6719 39.8635 21.5682 39.6789 21.3836C39.4943 21.199 39.3906 20.9486 39.3906 20.6875V12.8125C39.3906 12.5514 39.4943 12.301 39.6789 12.1164C39.8635 11.9318 40.1139 11.8281 40.375 11.8281H46.2812C46.5423 11.8281 46.7927 11.9318 46.9773 12.1164C47.1619 12.301 47.2656 12.5514 47.2656 12.8125V20.6875C47.2656 20.9486 47.1619 21.199 46.9773 21.3836C46.7927 21.5682 46.5423 21.6719 46.2812 21.6719ZM41.3594 19.7031H45.2969V13.7969H41.3594V19.7031Z" fill="black"/>
<path d="M18.7188 31.5156H24.625V39.3906H18.7188V31.5156Z" fill="#A8EDFD"/>
<path d="M18.7188 36.4375H24.625V39.3906H18.7188V36.4375Z" fill="#8BD4DE"/>
<path d="M24.625 40.375H18.7188C18.4577 40.375 18.2073 40.2713 18.0227 40.0867C17.8381 39.9021 17.7344 39.6517 17.7344 39.3906V31.5156C17.7344 31.2546 17.8381 31.0042 18.0227 30.8196C18.2073 30.635 18.4577 30.5312 18.7188 30.5312H24.625C24.8861 30.5312 25.1365 30.635 25.3211 30.8196C25.5057 31.0042 25.6094 31.2546 25.6094 31.5156V39.3906C25.6094 39.6517 25.5057 39.9021 25.3211 40.0867C25.1365 40.2713 24.8861 40.375 24.625 40.375ZM19.7031 38.4062H23.6406V32.5H19.7031V38.4062Z" fill="black"/>
<path d="M29.5469 31.5156H35.4531V39.3906H29.5469V31.5156Z" fill="#A8EDFD"/>
<path d="M29.5469 36.4375H35.4531V39.3906H29.5469V36.4375Z" fill="#8BD4DE"/>
<path d="M35.4531 40.375H29.5469C29.2858 40.375 29.0354 40.2713 28.8508 40.0867C28.6662 39.9021 28.5625 39.6517 28.5625 39.3906V31.5156C28.5625 31.2546 28.6662 31.0042 28.8508 30.8196C29.0354 30.635 29.2858 30.5312 29.5469 30.5312H35.4531C35.7142 30.5312 35.9646 30.635 36.1492 30.8196C36.3338 31.0042 36.4375 31.2546 36.4375 31.5156V39.3906C36.4375 39.6517 36.3338 39.9021 36.1492 40.0867C35.9646 40.2713 35.7142 40.375 35.4531 40.375ZM30.5312 38.4062H34.4688V32.5H30.5312V38.4062Z" fill="black"/>
<path d="M40.375 31.5156H46.2812V39.3906H40.375V31.5156Z" fill="#A8EDFD"/>
<path d="M40.375 36.4375H46.2812V39.3906H40.375V36.4375Z" fill="#8BD4DE"/>
<path d="M46.2812 40.375H40.375C40.1139 40.375 39.8635 40.2713 39.6789 40.0867C39.4943 39.9021 39.3906 39.6517 39.3906 39.3906V31.5156C39.3906 31.2546 39.4943 31.0042 39.6789 30.8196C39.8635 30.635 40.1139 30.5312 40.375 30.5312H46.2812C46.5423 30.5312 46.7927 30.635 46.9773 30.8196C47.1619 31.0042 47.2656 31.2546 47.2656 31.5156V39.3906C47.2656 39.6517 47.1619 39.9021 46.9773 40.0867C46.7927 40.2713 46.5423 40.375 46.2812 40.375ZM41.3594 38.4062H45.2969V32.5H41.3594V38.4062Z" fill="black"/>
<path d="M13.7963 53.1719C13.8086 53.1719 13.7963 52.9258 13.7963 63.0157C3.72861 63.0157 3.95255 63.0034 3.95255 63.0157C3.95255 60.4049 4.98966 57.9011 6.83572 56.0551C8.68178 54.209 11.1856 53.1719 13.7963 53.1719Z" fill="#B1DA7A"/>
<path d="M3.95268 63.0156C3.95268 63.0279 3.70659 63.0156 13.7964 63.0156V60.0625H4.40426C4.10437 61.0182 3.95209 62.014 3.95268 63.0156Z" fill="#96BF5B"/>
<path d="M13.7969 64H3.95312C3.69205 64 3.44167 63.8963 3.25707 63.7117C3.07246 63.5271 2.96875 63.2767 2.96875 63.0156C2.97201 60.1448 4.11387 57.3925 6.14383 55.3626C8.17379 53.3326 10.9261 52.1908 13.7969 52.1875C14.0579 52.1875 14.3083 52.2912 14.4929 52.4758C14.6775 52.6604 14.7812 52.9108 14.7812 53.1719V63.0156C14.7812 63.2767 14.6775 63.5271 14.4929 63.7117C14.3083 63.8963 14.0579 64 13.7969 64ZM4.99164 62.0312H12.8125V54.2104C10.8163 54.4368 8.95592 55.3335 7.53535 56.7541C6.11478 58.1747 5.21803 60.0351 4.99164 62.0312Z" fill="black"/>
<path d="M51.2027 53.1719C51.1904 53.1719 51.2027 52.9258 51.2027 63.0157C61.2704 63.0157 61.0465 63.0034 61.0465 63.0157C61.0465 60.4049 60.0094 57.9011 58.1633 56.0551C56.3173 54.209 53.8135 53.1719 51.2027 53.1719Z" fill="#B1DA7A"/>
<path d="M51.2031 60.0625V63.0156H61.0469C61.0479 62.014 60.8956 61.0181 60.5953 60.0625H51.2031Z" fill="#96BF5B"/>
<path d="M61.0469 64H51.2031C50.9421 64 50.6917 63.8963 50.5071 63.7117C50.3225 63.5271 50.2188 63.2767 50.2188 63.0156V53.1719C50.2188 52.9108 50.3225 52.6604 50.5071 52.4758C50.6917 52.2912 50.9421 52.1875 51.2031 52.1875C54.0739 52.1908 56.8262 53.3326 58.8562 55.3626C60.8861 57.3925 62.028 60.1448 62.0312 63.0156C62.0312 63.2767 61.9275 63.5271 61.7429 63.7117C61.5583 63.8963 61.3079 64 61.0469 64ZM52.1875 62.0312H60.0084C59.782 60.0351 58.8852 58.1747 57.4647 56.7541C56.0441 55.3335 54.1837 54.4368 52.1875 54.2104V62.0312Z" fill="black"/>
<path d="M32.5 64C32.2389 64 31.9885 63.8963 31.8039 63.7117C31.6193 63.5271 31.5156 63.2767 31.5156 63.0156V49.2344C31.5156 48.9733 31.6193 48.7229 31.8039 48.5383C31.9885 48.3537 32.2389 48.25 32.5 48.25C32.7611 48.25 33.0115 48.3537 33.1961 48.5383C33.3807 48.7229 33.4844 48.9733 33.4844 49.2344V63.0156C33.4844 63.2767 33.3807 63.5271 33.1961 63.7117C33.0115 63.8963 32.7611 64 32.5 64Z" fill="black"/>
</g>
<defs>
<filter id="filter0_f_932_3787" x="0.4" y="0.4" width="64.2" height="64.2" filterUnits="userSpaceOnUse" color-interpolation-filters="sRGB">
<feFlood flood-opacity="0" result="BackgroundImageFix"/>
<feBlend mode="normal" in="SourceGraphic" in2="BackgroundImageFix" result="shape"/>
<feGaussianBlur stdDeviation="0.3" result="effect1_foregroundBlur_932_3787"/>
</filter>
<clipPath id="clip0_932_3787">
<rect width="63" height="63" fill="white" transform="translate(1 1)"/>
</clipPath>
</defs>
</svg>
