<svg width="71" height="71" viewBox="0 0 71 71" fill="none" xmlns="http://www.w3.org/2000/svg">
<g opacity="0.28" clip-path="url(#clip0_932_3728)">
<path d="M9.98438 29.9531H18.8594V64.3438H7.76562V32.1719C7.76562 31.5834 7.99939 31.0191 8.41548 30.603C8.83158 30.1869 9.39593 29.9531 9.98438 29.9531Z" fill="#DCDCDC"/>
<path d="M7.76562 61.0156H18.8594V64.3438H7.76562V61.0156Z" fill="#BBBBBB"/>
<path d="M18.8594 65.4531H7.76562C7.4714 65.4531 7.18923 65.3362 6.98118 65.1282C6.77313 64.9201 6.65625 64.638 6.65625 64.3438V32.1719C6.65625 31.2892 7.00689 30.4427 7.63104 29.8185C8.25518 29.1944 9.1017 28.8438 9.98438 28.8438H18.8594C19.1536 28.8438 19.4358 28.9606 19.6438 29.1687C19.8519 29.3767 19.9688 29.6589 19.9688 29.9531V64.3438C19.9688 64.638 19.8519 64.9201 19.6438 65.1282C19.4358 65.3362 19.1536 65.4531 18.8594 65.4531ZM8.875 63.2344H17.75V31.0625H9.98438C9.69015 31.0625 9.40798 31.1794 9.19993 31.3874C8.99188 31.5955 8.875 31.8777 8.875 32.1719V63.2344Z" fill="black"/>
<path d="M52.1406 29.9531H61.0156C61.6041 29.9531 62.1684 30.1869 62.5845 30.603C63.0006 31.0191 63.2344 31.5834 63.2344 32.1719V64.3438H52.1406V29.9531Z" fill="#DCDCDC"/>
<path d="M52.1406 61.0156H63.2344V64.3438H52.1406V61.0156Z" fill="#BBBBBB"/>
<path d="M63.2344 65.4531H52.1406C51.8464 65.4531 51.5642 65.3362 51.3562 65.1282C51.1481 64.9201 51.0312 64.638 51.0312 64.3438V29.9531C51.0312 29.6589 51.1481 29.3767 51.3562 29.1687C51.5642 28.9606 51.8464 28.8438 52.1406 28.8438H61.0156C61.8983 28.8438 62.7448 29.1944 63.369 29.8185C63.9931 30.4427 64.3438 31.2892 64.3438 32.1719V33.2812C64.3438 33.5755 64.2269 33.8576 64.0188 34.0657C63.8108 34.2737 63.5286 34.3906 63.2344 34.3906C62.9402 34.3906 62.658 34.2737 62.4499 34.0657C62.2419 33.8576 62.125 33.5755 62.125 33.2812V32.1719C62.125 31.8777 62.0081 31.5955 61.8001 31.3874C61.592 31.1794 61.3098 31.0625 61.0156 31.0625H53.25V63.2344H62.125V37.7188C62.125 37.4245 62.2419 37.1424 62.4499 36.9343C62.658 36.7263 62.9402 36.6094 63.2344 36.6094C63.5286 36.6094 63.8108 36.7263 64.0188 36.9343C64.2269 37.1424 64.3438 37.4245 64.3438 37.7188V64.3438C64.3438 64.638 64.2269 64.9201 64.0188 65.1282C63.8108 65.3362 63.5286 65.4531 63.2344 65.4531Z" fill="black"/>
<path d="M1.10938 64.3438H69.8906V69.8906H1.10938V64.3438Z" fill="#596060"/>
<path d="M1.10938 66.5625H69.8906V69.8906H1.10938V66.5625Z" fill="#4C5657"/>
<path d="M69.8906 71H1.10938C0.81515 71 0.532977 70.8831 0.324928 70.6751C0.11688 70.467 0 70.1848 0 69.8906V64.3438C0 64.0495 0.11688 63.7674 0.324928 63.5593C0.532977 63.3513 0.81515 63.2344 1.10938 63.2344H69.8906C70.1848 63.2344 70.467 63.3513 70.6751 63.5593C70.8831 63.7674 71 64.0495 71 64.3438V69.8906C71 70.1848 70.8831 70.467 70.6751 70.6751C70.467 70.8831 70.1848 71 69.8906 71ZM2.21875 68.7812H68.7812V65.4531H2.21875V68.7812Z" fill="black"/>
<path d="M18.8594 9.98438H52.1406V64.3438H18.8594V9.98438Z" fill="#EAF2FF"/>
<path d="M18.8594 61.0156H52.1406V64.3438H18.8594V61.0156Z" fill="#C1D1F7"/>
<path d="M52.1406 65.4531H18.8594C18.5652 65.4531 18.283 65.3362 18.0749 65.1282C17.8669 64.9201 17.75 64.638 17.75 64.3438V14.4219C17.75 14.1277 17.8669 13.8455 18.0749 13.6374C18.283 13.4294 18.5652 13.3125 18.8594 13.3125C19.1536 13.3125 19.4358 13.4294 19.6438 13.6374C19.8519 13.8455 19.9688 14.1277 19.9688 14.4219V63.2344H51.0312V11.0938H18.8594C18.5652 11.0938 18.283 10.9769 18.0749 10.7688C17.8669 10.5608 17.75 10.2786 17.75 9.98438C17.75 9.69015 17.8669 9.40798 18.0749 9.19993C18.283 8.99188 18.5652 8.875 18.8594 8.875H52.1406C52.4348 8.875 52.717 8.99188 52.9251 9.19993C53.1331 9.40798 53.25 9.69015 53.25 9.98438V64.3438C53.25 64.638 53.1331 64.9201 52.9251 65.1282C52.717 65.3362 52.4348 65.4531 52.1406 65.4531Z" fill="black"/>
<path d="M22.1875 1.10938H48.8125V9.98438H22.1875V1.10938Z" fill="#C1D1F7"/>
<path d="M48.8125 11.0938H22.1875C21.8933 11.0938 21.6111 10.9769 21.4031 10.7688C21.195 10.5608 21.0781 10.2786 21.0781 9.98438V1.10938C21.0781 0.81515 21.195 0.532977 21.4031 0.324928C21.6111 0.11688 21.8933 0 22.1875 0L48.8125 0C49.1067 0 49.3889 0.11688 49.5969 0.324928C49.805 0.532977 49.9219 0.81515 49.9219 1.10938V9.98438C49.9219 10.2786 49.805 10.5608 49.5969 10.7688C49.3889 10.9769 49.1067 11.0938 48.8125 11.0938ZM23.2969 8.875H47.7031V2.21875H23.2969V8.875Z" fill="black"/>
<path d="M51.0312 2.21875H19.9688C19.6745 2.21875 19.3924 2.10187 19.1843 1.89382C18.9763 1.68577 18.8594 1.4036 18.8594 1.10938C18.8594 0.81515 18.9763 0.532977 19.1843 0.324928C19.3924 0.11688 19.6745 0 19.9688 0L51.0312 0C51.3255 0 51.6076 0.11688 51.8157 0.324928C52.0237 0.532977 52.1406 0.81515 52.1406 1.10938C52.1406 1.4036 52.0237 1.68577 51.8157 1.89382C51.6076 2.10187 51.3255 2.21875 51.0312 2.21875Z" fill="black"/>
<path d="M54.3594 11.0938H16.6406C16.3464 11.0938 16.0642 10.9769 15.8562 10.7688C15.6481 10.5608 15.5312 10.2786 15.5312 9.98438C15.5312 9.69015 15.6481 9.40798 15.8562 9.19993C16.0642 8.99188 16.3464 8.875 16.6406 8.875H54.3594C54.6536 8.875 54.9358 8.99188 55.1438 9.19993C55.3519 9.40798 55.4688 9.69015 55.4688 9.98438C55.4688 10.2786 55.3519 10.5608 55.1438 10.7688C54.9358 10.9769 54.6536 11.0938 54.3594 11.0938Z" fill="black"/>
<path d="M13.2145 44.3112C13.3683 43.5068 13.342 42.6782 13.1376 41.8851C12.9332 41.092 12.5557 40.354 12.0322 39.7241C11.5087 39.0942 10.8522 38.5881 10.1098 38.2421C9.3675 37.896 8.55774 37.7187 7.73872 37.7227C6.91969 37.7268 6.11174 37.9122 5.37287 38.2656C4.63401 38.619 3.98257 39.1316 3.46536 39.7667C2.94814 40.4017 2.57797 41.1435 2.38145 41.9386C2.18492 42.7337 2.16691 43.5624 2.32871 44.3653C2.58147 45.5963 2.40939 46.8766 1.84059 47.9971C1.32073 49.0119 1.07024 50.1431 1.11311 51.2824C1.15598 52.4217 1.49078 53.5309 2.08542 54.5037C2.68006 55.4765 3.5146 56.2802 4.50905 56.8379C5.5035 57.3955 6.62452 57.6884 7.76465 57.6884C8.90478 57.6884 10.0258 57.3955 11.0202 56.8379C12.0147 56.2802 12.8492 55.4765 13.4439 54.5037C14.0385 53.5309 14.3733 52.4217 14.4162 51.2824C14.4591 50.1431 14.2086 49.0119 13.6887 47.9971C13.1222 46.8563 12.9552 45.5583 13.2145 44.3112Z" fill="#B1DA7A"/>
<path d="M7.75163 54.3594C6.28053 54.3488 4.85384 53.8541 3.6919 52.9519C2.52996 52.0496 1.6974 50.7898 1.3228 49.3672C0.223131 53.6355 3.50272 57.6778 7.75163 57.6875C8.76871 57.6897 9.77277 57.4588 10.6867 57.0125C11.6007 56.5663 12.4002 55.9165 13.0239 55.1131C13.6476 54.3097 14.0789 53.374 14.2847 52.378C14.4905 51.3819 14.4652 50.352 14.211 49.3672C13.8414 50.7984 13.006 52.0659 11.8365 52.9698C10.6669 53.8737 9.22976 54.3626 7.75163 54.3594Z" fill="#96BF5B"/>
<path d="M7.76609 58.7969C6.43728 58.7931 5.1316 58.449 3.97351 57.7974C2.81543 57.1458 1.84355 56.2085 1.15055 55.0747C0.457535 53.9409 0.0664937 52.6485 0.0147014 51.3207C-0.0370909 49.9929 0.252093 48.6739 0.854682 47.4896C1.31035 46.594 1.44917 45.5705 1.24851 44.5858C1.05433 43.6224 1.07592 42.6279 1.31173 41.6737C1.54754 40.7196 1.99172 39.8295 2.61237 39.0674C3.23301 38.3054 4.01472 37.6902 4.90135 37.2661C5.78798 36.842 6.75752 36.6195 7.74035 36.6146C8.72317 36.6097 9.69489 36.8225 10.5857 37.2377C11.4765 37.653 12.2643 38.2603 12.8925 39.0162C13.5208 39.772 13.9738 40.6576 14.2191 41.6093C14.4644 42.5611 14.496 43.5553 14.3114 44.5207C14.0978 45.5226 14.2287 46.5673 14.683 47.4855C17.3483 52.6815 13.5293 58.7969 7.76609 58.7969ZM7.76609 38.8282C7.10871 38.8283 6.45955 38.9744 5.86555 39.256C5.27155 39.5376 4.74754 39.9477 4.3314 40.4566C3.91526 40.9655 3.61738 41.5605 3.4593 42.1986C3.30122 42.8367 3.28689 43.5019 3.41734 44.1462C3.71928 45.6233 3.51203 47.1591 2.82937 48.5033C2.38594 49.3641 2.17558 50.3261 2.21921 51.2934C2.35788 54.2055 4.83318 56.5726 7.74806 56.5782C11.9082 56.5782 14.5943 52.1892 12.6973 48.5005C12.0155 47.1395 11.8137 45.5879 12.1245 44.0977C12.6529 41.3437 10.4827 38.8282 7.76609 38.8282Z" fill="black"/>
<path d="M7.76562 64.3438C7.4714 64.3438 7.18923 64.2269 6.98118 64.0188C6.77313 63.8108 6.65625 63.5286 6.65625 63.2344V47.7031C6.65625 47.4089 6.77313 47.1267 6.98118 46.9187C7.18923 46.7106 7.4714 46.5938 7.76562 46.5938C8.05985 46.5938 8.34202 46.7106 8.55007 46.9187C8.75812 47.1267 8.875 47.4089 8.875 47.7031V63.2344C8.875 63.5286 8.75812 63.8108 8.55007 64.0188C8.34202 64.2269 8.05985 64.3438 7.76562 64.3438Z" fill="black"/>
<path d="M68.6832 44.3112C68.837 43.5068 68.8108 42.6782 68.6064 41.8851C68.4019 41.092 68.0244 40.354 67.5009 39.7241C66.9774 39.0942 66.3209 38.5881 65.5786 38.2421C64.8362 37.896 64.0265 37.7187 63.2075 37.7227C62.3884 37.7268 61.5805 37.9122 60.8416 38.2656C60.1028 38.619 59.4513 39.1316 58.9341 39.7667C58.4169 40.4017 58.0467 41.1435 57.8502 41.9386C57.6537 42.7337 57.6357 43.5624 57.7975 44.3653C58.0502 45.5963 57.8781 46.8766 57.3093 47.9971C56.7895 49.0119 56.539 50.1431 56.5819 51.2824C56.6247 52.4217 56.9595 53.5309 57.5542 54.5037C58.1488 55.4765 58.9834 56.2802 59.9778 56.8379C60.9723 57.3955 62.0933 57.6884 63.2334 57.6884C64.3735 57.6884 65.4945 57.3955 66.489 56.8379C67.4834 56.2802 68.318 55.4765 68.9126 54.5037C69.5073 53.5309 69.8421 52.4217 69.8849 51.2824C69.9278 50.1431 69.6773 49.0119 69.1575 47.9971C68.591 46.8563 68.424 45.5583 68.6832 44.3112Z" fill="#B1DA7A"/>
<path d="M63.2204 54.3594C61.7493 54.3488 60.3226 53.8541 59.1607 52.9519C57.9987 52.0496 57.1661 50.7898 56.7915 49.3672C55.6919 53.6355 58.9715 57.6778 63.2204 57.6875C64.2375 57.6897 65.2415 57.4588 66.1555 57.0125C67.0694 56.5663 67.8689 55.9165 68.4926 55.1131C69.1163 54.3097 69.5476 53.374 69.7534 52.378C69.9592 51.3819 69.934 50.352 69.6797 49.3672C69.3102 50.7984 68.4748 52.0659 67.3052 52.9698C66.1357 53.8737 64.6985 54.3626 63.2204 54.3594Z" fill="#96BF5B"/>
<path d="M63.2348 58.7969C61.906 58.7931 60.6003 58.449 59.4423 57.7974C58.2842 57.1458 57.3123 56.2085 56.6193 55.0747C55.9263 53.9409 55.5352 52.6485 55.4835 51.3207C55.4317 49.9929 55.7208 48.6739 56.3234 47.4896C56.7791 46.594 56.9179 45.5705 56.7173 44.5858C56.5231 43.6224 56.5447 42.6279 56.7805 41.6737C57.0163 40.7196 57.4605 39.8295 58.0811 39.0674C58.7018 38.3054 59.4835 37.6902 60.3701 37.2661C61.2567 36.842 62.2263 36.6195 63.2091 36.6146C64.1919 36.6097 65.1636 36.8225 66.0545 37.2377C66.9453 37.653 67.7331 38.2603 68.3613 39.0162C68.9895 39.772 69.4426 40.6576 69.6879 41.6093C69.9332 42.5611 69.9647 43.5553 69.7801 44.5207C69.5665 45.5226 69.6975 46.5673 70.1518 47.4855C72.8171 52.6815 68.998 58.7969 63.2348 58.7969ZM63.2348 38.8282C62.5775 38.8283 61.9283 38.9744 61.3343 39.256C60.7403 39.5376 60.2163 39.9477 59.8001 40.4566C59.384 40.9655 59.0861 41.5605 58.928 42.1986C58.77 42.8367 58.7556 43.5019 58.8861 44.1462C59.188 45.6233 58.9808 47.1591 58.2981 48.5033C57.8547 49.3641 57.6443 50.3261 57.688 51.2934C57.8266 54.2055 60.3019 56.5726 63.2168 56.5782C67.37 56.5782 70.063 52.1892 68.166 48.5005C67.4842 47.1395 67.2824 45.5879 67.5933 44.0977C68.1216 41.3437 65.9514 38.8282 63.2348 38.8282Z" fill="black"/>
<path d="M63.2344 64.3438C62.9402 64.3438 62.658 64.2269 62.4499 64.0188C62.2419 63.8108 62.125 63.5286 62.125 63.2344V47.7031C62.125 47.4089 62.2419 47.1267 62.4499 46.9187C62.658 46.7106 62.9402 46.5938 63.2344 46.5938C63.5286 46.5938 63.8108 46.7106 64.0188 46.9187C64.2269 47.1267 64.3438 47.4089 64.3438 47.7031V63.2344C64.3438 63.5286 64.2269 63.8108 64.0188 64.0188C63.8108 64.2269 63.5286 64.3438 63.2344 64.3438Z" fill="black"/>
<path d="M29.9531 52.1406H41.0469V64.3438H29.9531V52.1406Z" fill="#A8EDFD"/>
<path d="M29.9531 52.1406H41.0469V55.4688H29.9531V52.1406Z" fill="#8BD4DE"/>
<path d="M41.0469 65.4531H29.9531C29.6589 65.4531 29.3767 65.3362 29.1687 65.1282C28.9606 64.9201 28.8438 64.638 28.8438 64.3438V52.1406C28.8438 51.8464 28.9606 51.5642 29.1687 51.3562C29.3767 51.1481 29.6589 51.0312 29.9531 51.0312H41.0469C41.3411 51.0312 41.6233 51.1481 41.8313 51.3562C42.0394 51.5642 42.1562 51.8464 42.1562 52.1406V64.3438C42.1562 64.638 42.0394 64.9201 41.8313 65.1282C41.6233 65.3362 41.3411 65.4531 41.0469 65.4531ZM31.0625 63.2344H39.9375V53.25H31.0625V63.2344Z" fill="black"/>
<path d="M42.1562 53.25H28.8438C28.5495 53.25 28.2674 53.1331 28.0593 52.9251C27.8513 52.717 27.7344 52.4348 27.7344 52.1406C27.7344 51.8464 27.8513 51.5642 28.0593 51.3562C28.2674 51.1481 28.5495 51.0312 28.8438 51.0312H42.1562C42.4505 51.0312 42.7326 51.1481 42.9407 51.3562C43.1487 51.5642 43.2656 51.8464 43.2656 52.1406C43.2656 52.4348 43.1487 52.717 42.9407 52.9251C42.7326 53.1331 42.4505 53.25 42.1562 53.25Z" fill="black"/>
<path d="M24.4062 15.5312H28.8438V19.9688H24.4062V15.5312Z" fill="#6FC3E2"/>
<path d="M28.8438 21.0781H24.4062C24.112 21.0781 23.8299 20.9612 23.6218 20.7532C23.4138 20.5451 23.2969 20.263 23.2969 19.9688V15.5312C23.2969 15.237 23.4138 14.9549 23.6218 14.7468C23.8299 14.5388 24.112 14.4219 24.4062 14.4219H28.8438C29.138 14.4219 29.4201 14.5388 29.6282 14.7468C29.8362 14.9549 29.9531 15.237 29.9531 15.5312V19.9688C29.9531 20.263 29.8362 20.5451 29.6282 20.7532C29.4201 20.9612 29.138 21.0781 28.8438 21.0781ZM25.5156 18.8594H27.7344V16.6406H25.5156V18.8594Z" fill="black"/>
<path d="M33.2812 15.5312H37.7188V19.9688H33.2812V15.5312Z" fill="#6FC3E2"/>
<path d="M37.7188 21.0781H33.2812C32.987 21.0781 32.7049 20.9612 32.4968 20.7532C32.2888 20.5451 32.1719 20.263 32.1719 19.9688V15.5312C32.1719 15.237 32.2888 14.9549 32.4968 14.7468C32.7049 14.5388 32.987 14.4219 33.2812 14.4219H37.7188C38.013 14.4219 38.2951 14.5388 38.5032 14.7468C38.7112 14.9549 38.8281 15.237 38.8281 15.5312V19.9688C38.8281 20.263 38.7112 20.5451 38.5032 20.7532C38.2951 20.9612 38.013 21.0781 37.7188 21.0781ZM34.3906 18.8594H36.6094V16.6406H34.3906V18.8594Z" fill="black"/>
<path d="M42.1562 15.5312H46.5938V19.9688H42.1562V15.5312Z" fill="#6FC3E2"/>
<path d="M46.5938 21.0781H42.1562C41.862 21.0781 41.5799 20.9612 41.3718 20.7532C41.1638 20.5451 41.0469 20.263 41.0469 19.9688V15.5312C41.0469 15.237 41.1638 14.9549 41.3718 14.7468C41.5799 14.5388 41.862 14.4219 42.1562 14.4219H46.5938C46.888 14.4219 47.1701 14.5388 47.3782 14.7468C47.5862 14.9549 47.7031 15.237 47.7031 15.5312V19.9688C47.7031 20.263 47.5862 20.5451 47.3782 20.7532C47.1701 20.9612 46.888 21.0781 46.5938 21.0781ZM43.2656 18.8594H45.4844V16.6406H43.2656V18.8594Z" fill="black"/>
<path d="M24.4062 24.4062H28.8438V28.8438H24.4062V24.4062Z" fill="#6FC3E2"/>
<path d="M28.8438 29.9531H24.4062C24.112 29.9531 23.8299 29.8362 23.6218 29.6282C23.4138 29.4201 23.2969 29.138 23.2969 28.8438V24.4062C23.2969 24.112 23.4138 23.8299 23.6218 23.6218C23.8299 23.4138 24.112 23.2969 24.4062 23.2969H28.8438C29.138 23.2969 29.4201 23.4138 29.6282 23.6218C29.8362 23.8299 29.9531 24.112 29.9531 24.4062V28.8438C29.9531 29.138 29.8362 29.4201 29.6282 29.6282C29.4201 29.8362 29.138 29.9531 28.8438 29.9531ZM25.5156 27.7344H27.7344V25.5156H25.5156V27.7344Z" fill="black"/>
<path d="M33.2812 24.4062H37.7188V28.8438H33.2812V24.4062Z" fill="#6FC3E2"/>
<path d="M37.7188 29.9531H33.2812C32.987 29.9531 32.7049 29.8362 32.4968 29.6282C32.2888 29.4201 32.1719 29.138 32.1719 28.8438V24.4062C32.1719 24.112 32.2888 23.8299 32.4968 23.6218C32.7049 23.4138 32.987 23.2969 33.2812 23.2969H37.7188C38.013 23.2969 38.2951 23.4138 38.5032 23.6218C38.7112 23.8299 38.8281 24.112 38.8281 24.4062V28.8438C38.8281 29.138 38.7112 29.4201 38.5032 29.6282C38.2951 29.8362 38.013 29.9531 37.7188 29.9531ZM34.3906 27.7344H36.6094V25.5156H34.3906V27.7344Z" fill="black"/>
<path d="M42.1562 24.4062H46.5938V28.8438H42.1562V24.4062Z" fill="#6FC3E2"/>
<path d="M46.5938 29.9531H42.1562C41.862 29.9531 41.5799 29.8362 41.3718 29.6282C41.1638 29.4201 41.0469 29.138 41.0469 28.8438V24.4062C41.0469 24.112 41.1638 23.8299 41.3718 23.6218C41.5799 23.4138 41.862 23.2969 42.1562 23.2969H46.5938C46.888 23.2969 47.1701 23.4138 47.3782 23.6218C47.5862 23.8299 47.7031 24.112 47.7031 24.4062V28.8438C47.7031 29.138 47.5862 29.4201 47.3782 29.6282C47.1701 29.8362 46.888 29.9531 46.5938 29.9531ZM43.2656 27.7344H45.4844V25.5156H43.2656V27.7344Z" fill="black"/>
<path d="M24.4062 33.2812H28.8438V37.7188H24.4062V33.2812Z" fill="#6FC3E2"/>
<path d="M28.8438 38.8281H24.4062C24.112 38.8281 23.8299 38.7112 23.6218 38.5032C23.4138 38.2951 23.2969 38.013 23.2969 37.7188V33.2812C23.2969 32.987 23.4138 32.7049 23.6218 32.4968C23.8299 32.2888 24.112 32.1719 24.4062 32.1719H28.8438C29.138 32.1719 29.4201 32.2888 29.6282 32.4968C29.8362 32.7049 29.9531 32.987 29.9531 33.2812V37.7188C29.9531 38.013 29.8362 38.2951 29.6282 38.5032C29.4201 38.7112 29.138 38.8281 28.8438 38.8281ZM25.5156 36.6094H27.7344V34.3906H25.5156V36.6094Z" fill="black"/>
<path d="M33.2812 33.2812H37.7188V37.7188H33.2812V33.2812Z" fill="#6FC3E2"/>
<path d="M37.7188 38.8281H33.2812C32.987 38.8281 32.7049 38.7112 32.4968 38.5032C32.2888 38.2951 32.1719 38.013 32.1719 37.7188V33.2812C32.1719 32.987 32.2888 32.7049 32.4968 32.4968C32.7049 32.2888 32.987 32.1719 33.2812 32.1719H37.7188C38.013 32.1719 38.2951 32.2888 38.5032 32.4968C38.7112 32.7049 38.8281 32.987 38.8281 33.2812V37.7188C38.8281 38.013 38.7112 38.2951 38.5032 38.5032C38.2951 38.7112 38.013 38.8281 37.7188 38.8281ZM34.3906 36.6094H36.6094V34.3906H34.3906V36.6094Z" fill="black"/>
<path d="M42.1562 33.2812H46.5938V37.7188H42.1562V33.2812Z" fill="#6FC3E2"/>
<path d="M46.5938 38.8281H42.1562C41.862 38.8281 41.5799 38.7112 41.3718 38.5032C41.1638 38.2951 41.0469 38.013 41.0469 37.7188V33.2812C41.0469 32.987 41.1638 32.7049 41.3718 32.4968C41.5799 32.2888 41.862 32.1719 42.1562 32.1719H46.5938C46.888 32.1719 47.1701 32.2888 47.3782 32.4968C47.5862 32.7049 47.7031 32.987 47.7031 33.2812V37.7188C47.7031 38.013 47.5862 38.2951 47.3782 38.5032C47.1701 38.7112 46.888 38.8281 46.5938 38.8281ZM43.2656 36.6094H45.4844V34.3906H43.2656V36.6094Z" fill="black"/>
<path d="M24.4062 42.1562H28.8438V46.5938H24.4062V42.1562Z" fill="#6FC3E2"/>
<path d="M28.8438 47.7031H24.4062C24.112 47.7031 23.8299 47.5862 23.6218 47.3782C23.4138 47.1701 23.2969 46.888 23.2969 46.5938V42.1562C23.2969 41.862 23.4138 41.5799 23.6218 41.3718C23.8299 41.1638 24.112 41.0469 24.4062 41.0469H28.8438C29.138 41.0469 29.4201 41.1638 29.6282 41.3718C29.8362 41.5799 29.9531 41.862 29.9531 42.1562V46.5938C29.9531 46.888 29.8362 47.1701 29.6282 47.3782C29.4201 47.5862 29.138 47.7031 28.8438 47.7031ZM25.5156 45.4844H27.7344V43.2656H25.5156V45.4844Z" fill="black"/>
<path d="M33.2812 42.1562H37.7188V46.5938H33.2812V42.1562Z" fill="#6FC3E2"/>
<path d="M37.7188 47.7031H33.2812C32.987 47.7031 32.7049 47.5862 32.4968 47.3782C32.2888 47.1701 32.1719 46.888 32.1719 46.5938V42.1562C32.1719 41.862 32.2888 41.5799 32.4968 41.3718C32.7049 41.1638 32.987 41.0469 33.2812 41.0469H37.7188C38.013 41.0469 38.2951 41.1638 38.5032 41.3718C38.7112 41.5799 38.8281 41.862 38.8281 42.1562V46.5938C38.8281 46.888 38.7112 47.1701 38.5032 47.3782C38.2951 47.5862 38.013 47.7031 37.7188 47.7031ZM34.3906 45.4844H36.6094V43.2656H34.3906V45.4844Z" fill="black"/>
<path d="M42.1562 42.1562H46.5938V46.5938H42.1562V42.1562Z" fill="#6FC3E2"/>
<path d="M46.5938 47.7031H42.1562C41.862 47.7031 41.5799 47.5862 41.3718 47.3782C41.1638 47.1701 41.0469 46.888 41.0469 46.5938V42.1562C41.0469 41.862 41.1638 41.5799 41.3718 41.3718C41.5799 41.1638 41.862 41.0469 42.1562 41.0469H46.5938C46.888 41.0469 47.1701 41.1638 47.3782 41.3718C47.5862 41.5799 47.7031 41.862 47.7031 42.1562V46.5938C47.7031 46.888 47.5862 47.1701 47.3782 47.3782C47.1701 47.5862 46.888 47.7031 46.5938 47.7031ZM43.2656 45.4844H45.4844V43.2656H43.2656V45.4844Z" fill="black"/>
<path d="M26.625 11.0938C26.3308 11.0938 26.0486 10.9769 25.8406 10.7688C25.6325 10.5608 25.5156 10.2786 25.5156 9.98438V6.65625C25.5156 6.36203 25.6325 6.07985 25.8406 5.8718C26.0486 5.66376 26.3308 5.54688 26.625 5.54688C26.9192 5.54688 27.2014 5.66376 27.4094 5.8718C27.6175 6.07985 27.7344 6.36203 27.7344 6.65625V9.98438C27.7344 10.2786 27.6175 10.5608 27.4094 10.7688C27.2014 10.9769 26.9192 11.0938 26.625 11.0938Z" fill="black"/>
<path d="M31.0625 11.0938C30.7683 11.0938 30.4861 10.9769 30.2781 10.7688C30.07 10.5608 29.9531 10.2786 29.9531 9.98438V6.65625C29.9531 6.36203 30.07 6.07985 30.2781 5.8718C30.4861 5.66376 30.7683 5.54688 31.0625 5.54688C31.3567 5.54688 31.6389 5.66376 31.8469 5.8718C32.055 6.07985 32.1719 6.36203 32.1719 6.65625V9.98438C32.1719 10.2786 32.055 10.5608 31.8469 10.7688C31.6389 10.9769 31.3567 11.0938 31.0625 11.0938Z" fill="black"/>
<path d="M35.5 11.0938C35.2058 11.0938 34.9236 10.9769 34.7156 10.7688C34.5075 10.5608 34.3906 10.2786 34.3906 9.98438V6.65625C34.3906 6.36203 34.5075 6.07985 34.7156 5.8718C34.9236 5.66376 35.2058 5.54688 35.5 5.54688C35.7942 5.54688 36.0764 5.66376 36.2844 5.8718C36.4925 6.07985 36.6094 6.36203 36.6094 6.65625V9.98438C36.6094 10.2786 36.4925 10.5608 36.2844 10.7688C36.0764 10.9769 35.7942 11.0938 35.5 11.0938Z" fill="black"/>
<path d="M39.9375 11.0938C39.6433 11.0938 39.3611 10.9769 39.1531 10.7688C38.945 10.5608 38.8281 10.2786 38.8281 9.98438V6.65625C38.8281 6.36203 38.945 6.07985 39.1531 5.8718C39.3611 5.66376 39.6433 5.54688 39.9375 5.54688C40.2317 5.54688 40.5139 5.66376 40.7219 5.8718C40.93 6.07985 41.0469 6.36203 41.0469 6.65625V9.98438C41.0469 10.2786 40.93 10.5608 40.7219 10.7688C40.5139 10.9769 40.2317 11.0938 39.9375 11.0938Z" fill="black"/>
<path d="M44.375 11.0938C44.0808 11.0938 43.7986 10.9769 43.5906 10.7688C43.3825 10.5608 43.2656 10.2786 43.2656 9.98438V6.65625C43.2656 6.36203 43.3825 6.07985 43.5906 5.8718C43.7986 5.66376 44.0808 5.54688 44.375 5.54688C44.6692 5.54688 44.9514 5.66376 45.1594 5.8718C45.3675 6.07985 45.4844 6.36203 45.4844 6.65625V9.98438C45.4844 10.2786 45.3675 10.5608 45.1594 10.7688C44.9514 10.9769 44.6692 11.0938 44.375 11.0938Z" fill="black"/>
</g>
<defs>
<clipPath id="clip0_932_3728">
<rect width="71" height="71" fill="white"/>
</clipPath>
</defs>
</svg>
