<svg width="67" height="63" viewBox="0 0 67 63" fill="none" xmlns="http://www.w3.org/2000/svg">
<g opacity="0.28" filter="url(#filter0_f_932_3692)">
<path d="M3.3125 38.0625H23V43.3125H3.3125V38.0625Z" fill="#374F68"/>
<path d="M23 38.0625V40.6875H8.5625C7.86631 40.6875 7.19863 40.4109 6.70634 39.9187C6.21406 39.4264 5.9375 38.7587 5.9375 38.0625H23Z" fill="#425B72"/>
<path d="M3.3125 22.3125H9.875V30.1875H3.3125V22.3125Z" fill="#9FDBF3"/>
<path d="M3.3125 30.1875H9.875V38.0625H3.3125V30.1875Z" fill="#9FDBF3"/>
<path d="M9.875 30.1875V35.4375C8.83071 35.4375 7.82919 35.0227 7.09077 34.2842C6.35234 33.5458 5.9375 32.5443 5.9375 31.5V30.1875H9.875Z" fill="#B2E5FB"/>
<path d="M9.875 30.1875H16.4375V38.0625H9.875V30.1875Z" fill="#9FDBF3"/>
<path d="M16.4375 30.1875H23V38.0625H16.4375V30.1875Z" fill="#9FDBF3"/>
<path d="M28.25 6.5625V56.4375H23V22.3125H3.3125V6.5625H28.25Z" fill="#DAD7E5"/>
<path d="M28.25 6.5625C28.25 55.4531 28.1187 53.8125 28.25 53.8125C27.5538 53.8125 26.8861 53.5359 26.3938 53.0437C25.9016 52.5514 25.625 51.8837 25.625 51.1875V21C25.625 20.6519 25.4867 20.3181 25.2406 20.0719C24.9944 19.8258 24.6606 19.6875 24.3125 19.6875H9.875C8.83071 19.6875 7.82919 19.2727 7.09077 18.5342C6.35234 17.7958 5.9375 16.7943 5.9375 15.75V6.5625H28.25Z" fill="#EDEBF2"/>
<path d="M5.9375 43.3125H23V56.4375H5.9375V43.3125Z" fill="#DAD7E5"/>
<path d="M23 43.3125V53.8125H19.0625C16.2777 53.8125 13.607 52.7063 11.6379 50.7371C9.66875 48.768 8.5625 46.0973 8.5625 43.3125H23Z" fill="#EDEBF2"/>
<path d="M16.4375 22.3125H23V30.1875H16.4375V22.3125Z" fill="#9FDBF3"/>
<path d="M9.875 22.3125H16.4375V30.1875H9.875V22.3125Z" fill="#9FDBF3"/>
<path d="M28.25 43.3125H63.6875V56.4375H28.25V43.3125Z" fill="#DAD7E5"/>
<path d="M63.6875 43.3125V53.8125H34.8125C33.7682 53.8125 32.7667 53.3977 32.0283 52.6592C31.2898 51.9208 30.875 50.9193 30.875 49.875V43.3125H63.6875Z" fill="#EDEBF2"/>
<path d="M28.25 17.0625H58.4375V38.0625H28.25V17.0625Z" fill="#DAD7E5"/>
<path d="M58.4375 17.0625V35.4375H34.8125C33.7682 35.4375 32.7667 35.0227 32.0283 34.2842C31.2898 33.5458 30.875 32.5443 30.875 31.5V17.0625H58.4375Z" fill="#EDEBF2"/>
<path d="M49.25 48.5625H55.8125V56.4375H49.25V48.5625Z" fill="#9FDBF3"/>
<path d="M36.125 48.5625H42.6875V56.4375H36.125V48.5625Z" fill="#9FDBF3"/>
<path d="M42.6875 48.5625V53.8125C41.6432 53.8125 40.6417 53.3977 39.9033 52.6592C39.1648 51.9208 38.75 50.9193 38.75 49.875V48.5625H42.6875Z" fill="#B2E5FB"/>
<path d="M55.8125 48.5625V53.8125C54.7682 53.8125 53.7667 53.3977 53.0283 52.6592C52.2898 51.9208 51.875 50.9193 51.875 49.875V48.5625H55.8125Z" fill="#B2E5FB"/>
<path d="M28.25 38.0625H63.6875V43.3125H28.25V38.0625Z" fill="#374F68"/>
<path d="M63.6875 38.0625V40.6875H33.5C32.8038 40.6875 32.1361 40.4109 31.6438 39.9187C31.1516 39.4264 30.875 38.7587 30.875 38.0625H63.6875Z" fill="#425B72"/>
<path d="M42.6875 24.9375H58.4375V32.8125H42.6875V24.9375Z" fill="#9FDBF3"/>
<path d="M58.4375 24.9375V30.1875H50.5625C49.1701 30.1875 47.8348 29.6344 46.8502 28.6498C45.8656 27.6652 45.3125 26.3299 45.3125 24.9375H58.4375Z" fill="#B2E5FB"/>
<path d="M28.25 11.8125H61.0625V17.0625H28.25V11.8125Z" fill="#374F68"/>
<path d="M61.0625 11.8125V14.4375H33.5C32.8038 14.4375 32.1361 14.1609 31.6438 13.6687C31.1516 13.1764 30.875 12.5087 30.875 11.8125H61.0625Z" fill="#425B72"/>
<path d="M16.4375 30.1875V35.4375C15.3932 35.4375 14.3917 35.0227 13.6533 34.2842C12.9148 33.5458 12.5 32.5443 12.5 31.5V30.1875H16.4375Z" fill="#B2E5FB"/>
<path d="M23 30.1875V35.4375C21.9557 35.4375 20.9542 35.0227 20.2158 34.2842C19.4773 33.5458 19.0625 32.5443 19.0625 31.5V30.1875H23Z" fill="#B2E5FB"/>
<path d="M9.875 22.3125V27.5625C8.83071 27.5625 7.82919 27.1477 7.09077 26.4092C6.35234 25.6708 5.9375 24.6693 5.9375 23.625V22.3125H9.875Z" fill="#B2E5FB"/>
<path d="M16.4375 22.3125V27.5625C15.3932 27.5625 14.3917 27.1477 13.6533 26.4092C12.9148 25.6708 12.5 24.6693 12.5 23.625V22.3125H16.4375Z" fill="#B2E5FB"/>
<path d="M23 22.3125V27.5625C21.9557 27.5625 20.9542 27.1477 20.2158 26.4092C19.4773 25.6708 19.0625 24.6693 19.0625 23.625V22.3125H23Z" fill="#B2E5FB"/>
<path d="M63.6875 36.75H59.75V18.375H61.0625C61.4106 18.375 61.7444 18.2367 61.9906 17.9906C62.2367 17.7444 62.375 17.4106 62.375 17.0625V11.8125C62.375 11.4644 62.2367 11.1306 61.9906 10.8844C61.7444 10.6383 61.4106 10.5 61.0625 10.5H29.5625V6.5625C29.5625 6.2144 29.4242 5.88056 29.1781 5.63442C28.9319 5.38828 28.5981 5.25 28.25 5.25H3.3125C2.9644 5.25 2.63056 5.38828 2.38442 5.63442C2.13828 5.88056 2 6.2144 2 6.5625L2 43.3125C2 43.6606 2.13828 43.9944 2.38442 44.2406C2.63056 44.4867 2.9644 44.625 3.3125 44.625H4.625V56.4375C4.625 56.7856 4.76328 57.1194 5.00942 57.3656C5.25556 57.6117 5.5894 57.75 5.9375 57.75H63.6875C64.0356 57.75 64.3694 57.6117 64.6156 57.3656C64.8617 57.1194 65 56.7856 65 56.4375V38.0625C65 37.7144 64.8617 37.3806 64.6156 37.1344C64.3694 36.8883 64.0356 36.75 63.6875 36.75ZM62.375 39.375V42H29.5625V39.375H62.375ZM57.125 31.5H44V26.25H57.125V31.5ZM57.125 23.625H42.6875C42.3394 23.625 42.0056 23.7633 41.7594 24.0094C41.5133 24.2556 41.375 24.5894 41.375 24.9375V32.8125C41.375 33.1606 41.5133 33.4944 41.7594 33.7406C42.0056 33.9867 42.3394 34.125 42.6875 34.125H57.125V36.75H29.5625V18.375H57.125V23.625ZM59.75 13.125V15.75H29.5625V13.125H59.75ZM15.125 23.625V28.875H11.1875V23.625H15.125ZM21.6875 23.625V28.875H17.75V23.625H21.6875ZM4.625 42V39.375H21.6875V42H4.625ZM21.6875 36.75H17.75V31.5H21.6875V36.75ZM15.125 36.75H11.1875V31.5H15.125V36.75ZM8.5625 36.75H4.625V31.5H8.5625V36.75ZM8.5625 28.875H4.625V23.625H8.5625V28.875ZM7.25 44.625H21.6875V55.125H7.25V44.625ZM24.3125 55.125V22.3125C24.3125 21.9644 24.1742 21.6306 23.9281 21.3844C23.6819 21.1383 23.3481 21 23 21H4.625V7.875H26.9375V55.125H24.3125ZM37.4375 55.125V49.875H41.375V55.125H37.4375ZM50.5625 55.125V49.875H54.5V55.125H50.5625ZM57.125 55.125V48.5625C57.125 48.2144 56.9867 47.8806 56.7406 47.6344C56.4944 47.3883 56.1606 47.25 55.8125 47.25H49.25C48.9019 47.25 48.5681 47.3883 48.3219 47.6344C48.0758 47.8806 47.9375 48.2144 47.9375 48.5625V55.125H44V48.5625C44 48.2144 43.8617 47.8806 43.6156 47.6344C43.3694 47.3883 43.0356 47.25 42.6875 47.25H36.125C35.7769 47.25 35.4431 47.3883 35.1969 47.6344C34.9508 47.8806 34.8125 48.2144 34.8125 48.5625V55.125H29.5625V44.625H62.375V55.125H57.125Z" fill="black"/>
</g>
<defs>
<filter id="filter0_f_932_3692" x="0.4" y="-1.6" width="66.2" height="66.2" filterUnits="userSpaceOnUse" color-interpolation-filters="sRGB">
<feFlood flood-opacity="0" result="BackgroundImageFix"/>
<feBlend mode="normal" in="SourceGraphic" in2="BackgroundImageFix" result="shape"/>
<feGaussianBlur stdDeviation="0.8" result="effect1_foregroundBlur_932_3692"/>
</filter>
</defs>
</svg>
