<svg width="872" height="788" viewBox="0 0 872 788" fill="none" xmlns="http://www.w3.org/2000/svg">
<path d="M397.781 55.3115H476.835V0.219727C477.373 0.26492 477.911 0.310464 478.448 0.357422V55.3115H557.502V14.0166C558.04 14.1574 558.578 14.2997 559.115 14.4424V55.3115H638.169V43.3291C638.707 43.584 639.245 43.8389 639.782 44.0957V55.3115H661.675C662.56 55.7957 663.443 56.2818 664.323 56.7715H639.782V128.323H718.836V92.5889C719.375 93.0036 719.913 93.4189 720.449 93.8359V128.323H759.604C760.092 128.809 760.578 129.296 761.062 129.784H720.449V201.336H799.503V174.571C800.043 175.303 800.581 176.036 801.116 176.771V201.336H817.604C817.905 201.822 818.202 202.31 818.5 202.797H801.116V274.349H852.512C852.682 274.835 852.85 275.322 853.019 275.809H801.116V347.361H869.856C869.92 347.848 869.983 348.334 870.044 348.821H801.116V420.374H871.906C871.871 420.861 871.836 421.348 871.799 421.834H801.116V493.386H858.952C858.813 493.873 858.673 494.36 858.531 494.847H801.116V566.398H829.278C829.017 566.886 828.755 567.372 828.492 567.858H801.116V611.229C800.581 611.964 800.043 612.697 799.503 613.429V567.858H720.449V639.411H778.594C778.167 639.899 777.739 640.385 777.31 640.871H720.449V694.164C719.913 694.581 719.375 694.996 718.836 695.411V640.871H639.782V712.424H695.129C694.397 712.913 693.664 713.399 692.929 713.884H639.782V743.904C639.245 744.161 638.707 744.415 638.169 744.67V713.884H559.115V773.558C558.578 773.7 558.04 773.842 557.502 773.982V713.884H478.448V785.436H498.744C494.604 785.975 490.446 786.463 486.27 786.896H478.448V787.643C477.911 787.69 477.373 787.735 476.835 787.78V786.896H397.781V788C397.243 787.958 396.705 787.916 396.168 787.872V786.896H385.638C381.461 786.463 377.303 785.975 373.163 785.436H396.168V713.884H317.114V774.683C316.576 774.545 316.038 774.407 315.501 774.268V713.884H236.447V745.943C235.909 745.693 235.371 745.441 234.834 745.188V713.884H178.979C178.243 713.399 177.51 712.913 176.778 712.424H234.834V640.871H155.78V697.48C155.241 697.072 154.704 696.663 154.167 696.253V640.871H94.5967C94.1674 640.385 93.7393 639.899 93.3125 639.411H154.167V567.858H75.1133V617.057C74.5728 616.342 74.0354 615.625 73.5 614.906V567.858H43.4141C43.1509 567.372 42.8899 566.885 42.6289 566.398H73.5V494.847H13.375C13.2337 494.36 13.0934 493.873 12.9541 493.386H73.5V421.834H0.107422C0.0700665 421.348 0.0354107 420.861 0 420.374H73.5V348.821H1.8623C1.92349 348.334 1.98765 347.848 2.05078 347.361H73.5V275.809H18.8877C19.0559 275.322 19.2243 274.835 19.3945 274.349H73.5V202.797H53.4062C53.7041 202.31 54.0017 201.822 54.3018 201.336H73.5V173.094C74.0355 172.375 74.5727 171.658 75.1133 170.942V201.336H154.167V129.784H110.844C111.328 129.296 111.815 128.809 112.302 128.323H154.167V91.7461C154.704 91.3357 155.241 90.9266 155.78 90.5186V128.323H234.834V56.7715H207.584C208.464 56.282 209.347 55.7956 210.231 55.3115H234.834V42.8105C235.371 42.558 235.909 42.3072 236.447 42.0566V55.3115H315.501V13.7314C316.038 13.5922 316.576 13.4538 317.114 13.3164V55.3115H396.168V0.12793C396.705 0.0840163 397.243 0.0421499 397.781 0V55.3115ZM397.781 713.884V785.436H476.835V713.884H397.781ZM236.447 640.871V712.424H315.501V640.871H236.447ZM317.114 640.871V712.424H396.168V640.871H317.114ZM397.781 640.871V712.424H476.835V640.871H397.781ZM478.448 640.871V712.424H557.502V640.871H478.448ZM559.115 640.871V712.424H638.169V640.871H559.115ZM155.78 567.858V639.411H234.834V567.858H155.78ZM236.447 567.858V639.411H315.501V567.858H236.447ZM317.114 567.858V639.411H396.168V567.858H317.114ZM397.781 567.858V639.411H476.835V567.858H397.781ZM478.448 567.858V639.411H557.502V567.858H478.448ZM559.115 567.858V639.411H638.169V567.858H559.115ZM639.782 567.858V639.411H718.836V567.858H639.782ZM75.1133 494.847V566.398H154.167V494.847H75.1133ZM155.78 494.847V566.398H234.834V494.847H155.78ZM236.447 494.847V566.398H315.501V494.847H236.447ZM317.114 494.847V566.398H396.168V494.847H317.114ZM397.781 494.847V566.398H476.835V494.847H397.781ZM478.448 494.847V566.398H557.502V494.847H478.448ZM559.115 494.847V566.398H638.169V494.847H559.115ZM639.782 494.847V566.398H718.836V494.847H639.782ZM720.449 494.847V566.398H799.503V494.847H720.449ZM75.1133 421.834V493.386H154.167V421.834H75.1133ZM155.78 421.834V493.386H234.834V421.834H155.78ZM236.447 421.834V493.386H315.501V421.834H236.447ZM317.114 421.834V493.386H396.168V421.834H317.114ZM397.781 421.834V493.386H476.835V421.834H397.781ZM478.448 421.834V493.386H557.502V421.834H478.448ZM559.115 421.834V493.386H638.169V421.834H559.115ZM639.782 421.834V493.386H718.836V421.834H639.782ZM720.449 421.834V493.386H799.503V421.834H720.449ZM75.1133 348.821V420.374H154.167V348.821H75.1133ZM155.78 348.821V420.374H234.834V348.821H155.78ZM236.447 348.821V420.374H315.501V348.821H236.447ZM317.114 348.821V420.374H396.168V348.821H317.114ZM397.781 348.821V420.374H476.835V348.821H397.781ZM478.448 348.821V420.374H557.502V348.821H478.448ZM559.115 348.821V420.374H638.169V348.821H559.115ZM639.782 348.821V420.374H718.836V348.821H639.782ZM720.449 348.821V420.374H799.503V348.821H720.449ZM75.1133 275.809V347.361H154.167V275.809H75.1133ZM155.78 275.809V347.361H234.834V275.809H155.78ZM236.447 275.809V347.361H315.501V275.809H236.447ZM317.114 275.809V347.361H396.168V275.809H317.114ZM397.781 275.809V347.361H476.835V275.809H397.781ZM478.448 275.809V347.361H557.502V275.809H478.448ZM559.115 275.809V347.361H638.169V275.809H559.115ZM639.782 275.809V347.361H718.836V275.809H639.782ZM720.449 275.809V347.361H799.503V275.809H720.449ZM75.1133 202.797V274.349H154.167V202.797H75.1133ZM155.78 202.797V274.349H234.834V202.797H155.78ZM236.447 202.797V274.349H315.501V202.797H236.447ZM317.114 202.797V274.349H396.168V202.797H317.114ZM397.781 202.797V274.349H476.835V202.797H397.781ZM478.448 202.797V274.349H557.502V202.797H478.448ZM559.115 202.797V274.349H638.169V202.797H559.115ZM639.782 202.797V274.349H718.836V202.797H639.782ZM720.449 202.797V274.349H799.503V202.797H720.449ZM155.78 129.784V201.336H234.834V129.784H155.78ZM236.447 129.784V201.336H315.501V129.784H236.447ZM317.114 129.784V201.336H396.168V129.784H317.114ZM397.781 129.784V201.336H476.835V129.784H397.781ZM478.448 129.784V201.336H557.502V129.784H478.448ZM559.115 129.784V201.336H638.169V129.784H559.115ZM639.782 129.784V201.336H718.836V129.784H639.782ZM236.447 56.7715V128.323H315.501V56.7715H236.447ZM317.114 56.7715V128.323H396.168V56.7715H317.114ZM397.781 56.7715V128.323H476.835V56.7715H397.781ZM478.448 56.7715V128.323H557.502V56.7715H478.448ZM559.115 56.7715V128.323H638.169V56.7715H559.115Z" fill="url(#paint0_radial_923_3687)" fill-opacity="0.28"/>
<defs>
<radialGradient id="paint0_radial_923_3687" cx="0" cy="0" r="1" gradientUnits="userSpaceOnUse" gradientTransform="translate(435.953 394) rotate(90) scale(395.276 436.849)">
<stop stop-color="#485260"/>
<stop offset="1" stop-color="#121417"/>
</radialGradient>
</defs>
</svg>
