<svg width="406" height="313" viewBox="0 0 406 313" fill="none" xmlns="http://www.w3.org/2000/svg">
<path d="M32 0V307" stroke="url(#paint0_radial_659_270)" stroke-width="2" stroke-dasharray="6 6"/>
<path d="M184 0V307" stroke="url(#paint1_radial_659_270)" stroke-width="2" stroke-dasharray="6 6"/>
<path d="M84 0V307" stroke="url(#paint2_radial_659_270)" stroke-width="2" stroke-dasharray="6 6"/>
<path d="M236 0V307" stroke="url(#paint3_radial_659_270)" stroke-width="2" stroke-dasharray="6 6"/>
<path d="M336 0V307" stroke="url(#paint4_radial_659_270)" stroke-width="2" stroke-dasharray="6 6"/>
<path d="M134 5.5V312.5" stroke="url(#paint5_radial_659_270)" stroke-width="2" stroke-dasharray="6 6"/>
<path d="M286 5.5V312.5" stroke="url(#paint6_radial_659_270)" stroke-width="2" stroke-dasharray="6 6"/>
<path d="M386 5.5V312.5" stroke="url(#paint7_radial_659_270)" stroke-width="2" stroke-dasharray="6 6"/>
<circle cx="181" cy="149" r="4.5" fill="#1B1F23" stroke="#4C5569"/>
<path d="M185 149H226" stroke="#4C5569"/>
<g filter="url(#filter0_d_659_270)">
<rect x="4.5" y="82.5" width="175" height="119" rx="19.5" fill="#1B1F23" stroke="#4C5569"/>
<g clip-path="url(#clip0_659_270)">
<path d="M15 101H67.5C71.0899 101 74 103.91 74 107.5C74 111.09 71.0899 114 67.5 114H23C18.5817 114 15 110.418 15 106V101Z" fill="#4C5569"/>
<path d="M15 101H67.5C71.0899 101 74 103.91 74 107.5C74 111.09 71.0899 114 67.5 114H23C18.5817 114 15 110.418 15 106V101Z" fill="black" fill-opacity="0.2"/>
<path d="M15 101H67.5C71.0899 101 74 103.91 74 107.5C74 111.09 71.0899 114 67.5 114H23C18.5817 114 15 110.418 15 106V101Z" fill="black" fill-opacity="0.2"/>
<path d="M168 118H115.5C111.91 118 109 120.91 109 124.5C109 128.09 111.91 131 115.5 131H160C164.418 131 168 127.418 168 123V118Z" fill="#4C5569"/>
<path d="M168 118H115.5C111.91 118 109 120.91 109 124.5C109 128.09 111.91 131 115.5 131H160C164.418 131 168 127.418 168 123V118Z" fill="black" fill-opacity="0.2"/>
<path d="M168 118H115.5C111.91 118 109 120.91 109 124.5C109 128.09 111.91 131 115.5 131H160C164.418 131 168 127.418 168 123V118Z" fill="black" fill-opacity="0.2"/>
<path d="M166 171H113.5C109.91 171 107 173.91 107 177.5C107 181.09 109.91 184 113.5 184H158C162.418 184 166 180.418 166 176V171Z" fill="#4C5569"/>
<path d="M166 171H113.5C109.91 171 107 173.91 107 177.5C107 181.09 109.91 184 113.5 184H158C162.418 184 166 180.418 166 176V171Z" fill="black" fill-opacity="0.2"/>
<path d="M166 171H113.5C109.91 171 107 173.91 107 177.5C107 181.09 109.91 184 113.5 184H158C162.418 184 166 180.418 166 176V171Z" fill="black" fill-opacity="0.2"/>
<path d="M17 135H52.5C56.0899 135 59 137.91 59 141.5C59 145.09 56.0899 148 52.5 148H25C20.5817 148 17 144.418 17 140V135Z" fill="#4C5569"/>
<path d="M17 135H52.5C56.0899 135 59 137.91 59 141.5C59 145.09 56.0899 148 52.5 148H25C20.5817 148 17 144.418 17 140V135Z" fill="black" fill-opacity="0.2"/>
<path d="M17 135H52.5C56.0899 135 59 137.91 59 141.5C59 145.09 56.0899 148 52.5 148H25C20.5817 148 17 144.418 17 140V135Z" fill="black" fill-opacity="0.2"/>
<path d="M15 154H83.5C87.0899 154 90 156.91 90 160.5C90 164.09 87.0899 167 83.5 167H23C18.5817 167 15 163.418 15 159V154Z" fill="#4C5569"/>
<path d="M15 154H83.5C87.0899 154 90 156.91 90 160.5C90 164.09 87.0899 167 83.5 167H23C18.5817 167 15 163.418 15 159V154Z" fill="black" fill-opacity="0.2"/>
<path d="M15 154H83.5C87.0899 154 90 156.91 90 160.5C90 164.09 87.0899 167 83.5 167H23C18.5817 167 15 163.418 15 159V154Z" fill="black" fill-opacity="0.2"/>
<circle cx="92" cy="146" r="88" fill="url(#paint8_radial_659_270)"/>
</g>
</g>
<g filter="url(#filter1_d_659_270)">
<rect x="226" y="129" width="42" height="42" rx="10" fill="#1B1F23"/>
<rect x="226.5" y="129.5" width="41" height="41" rx="9.5" stroke="#4C5569"/>
<rect x="226.5" y="129.5" width="41" height="41" rx="9.5" stroke="url(#paint9_linear_659_270)"/>
<rect x="226.5" y="129.5" width="41" height="41" rx="9.5" stroke="url(#paint10_linear_659_270)" stroke-opacity="0.32"/>
</g>
<path d="M302 147H303.5C314.546 147 323.5 138.046 323.5 127V86.5C323.5 75.4543 332.454 66.5 343.5 66.5H384.5" stroke="#4C5569"/>
<path d="M301 154H302.5C313.546 154 322.5 162.954 322.5 174V214.5C322.5 225.546 331.454 234.5 342.5 234.5H383.5" stroke="#4C5569"/>
<path d="M304.5 149.5H321.75C331.001 149.5 338.5 142.001 338.5 132.75V132.75C338.5 123.499 345.999 116 355.25 116H383" stroke="#4C5569"/>
<path d="M375 185.5H357.75C348.499 185.5 341 178.001 341 168.75V168.75C341 159.499 333.501 152 324.25 152H296.5" stroke="#4C5569"/>
<path d="M268 150H299.5" stroke="#4C5569"/>
<circle cx="300" cy="150" r="4.5" fill="#1B1F23" stroke="#4C5569"/>
<g filter="url(#filter2_d_659_270)">
<rect x="374" y="54" width="28" height="28" rx="5" fill="#1B1F23"/>
<rect x="374.5" y="54.5" width="27" height="27" rx="4.5" stroke="#4C5569"/>
</g>
<g filter="url(#filter3_d_659_270)">
<rect x="374" y="105" width="28" height="28" rx="5" fill="#1B1F23"/>
<rect x="374.5" y="105.5" width="27" height="27" rx="4.5" stroke="#4C5569"/>
</g>
<g filter="url(#filter4_d_659_270)">
<rect x="374" y="170" width="28" height="28" rx="5" fill="#1B1F23"/>
<rect x="374.5" y="170.5" width="27" height="27" rx="4.5" stroke="#4C5569"/>
</g>
<g filter="url(#filter5_d_659_270)">
<rect x="374" y="223" width="28" height="28" rx="5" fill="#1B1F23"/>
<rect x="374.5" y="223.5" width="27" height="27" rx="4.5" stroke="#4C5569"/>
</g>
<defs>
<filter id="filter0_d_659_270" x="0" y="82" width="184" height="128" filterUnits="userSpaceOnUse" color-interpolation-filters="sRGB">
<feFlood flood-opacity="0" result="BackgroundImageFix"/>
<feColorMatrix in="SourceAlpha" type="matrix" values="0 0 0 0 0 0 0 0 0 0 0 0 0 0 0 0 0 0 127 0" result="hardAlpha"/>
<feOffset dy="4"/>
<feGaussianBlur stdDeviation="2"/>
<feComposite in2="hardAlpha" operator="out"/>
<feColorMatrix type="matrix" values="0 0 0 0 0 0 0 0 0 0 0 0 0 0 0 0 0 0 0.25 0"/>
<feBlend mode="normal" in2="BackgroundImageFix" result="effect1_dropShadow_659_270"/>
<feBlend mode="normal" in="SourceGraphic" in2="effect1_dropShadow_659_270" result="shape"/>
</filter>
<filter id="filter1_d_659_270" x="222" y="129" width="50" height="50" filterUnits="userSpaceOnUse" color-interpolation-filters="sRGB">
<feFlood flood-opacity="0" result="BackgroundImageFix"/>
<feColorMatrix in="SourceAlpha" type="matrix" values="0 0 0 0 0 0 0 0 0 0 0 0 0 0 0 0 0 0 127 0" result="hardAlpha"/>
<feOffset dy="4"/>
<feGaussianBlur stdDeviation="2"/>
<feComposite in2="hardAlpha" operator="out"/>
<feColorMatrix type="matrix" values="0 0 0 0 0 0 0 0 0 0 0 0 0 0 0 0 0 0 0.12 0"/>
<feBlend mode="normal" in2="BackgroundImageFix" result="effect1_dropShadow_659_270"/>
<feBlend mode="normal" in="SourceGraphic" in2="effect1_dropShadow_659_270" result="shape"/>
</filter>
<filter id="filter2_d_659_270" x="370" y="54" width="36" height="36" filterUnits="userSpaceOnUse" color-interpolation-filters="sRGB">
<feFlood flood-opacity="0" result="BackgroundImageFix"/>
<feColorMatrix in="SourceAlpha" type="matrix" values="0 0 0 0 0 0 0 0 0 0 0 0 0 0 0 0 0 0 127 0" result="hardAlpha"/>
<feOffset dy="4"/>
<feGaussianBlur stdDeviation="2"/>
<feComposite in2="hardAlpha" operator="out"/>
<feColorMatrix type="matrix" values="0 0 0 0 0 0 0 0 0 0 0 0 0 0 0 0 0 0 0.25 0"/>
<feBlend mode="normal" in2="BackgroundImageFix" result="effect1_dropShadow_659_270"/>
<feBlend mode="normal" in="SourceGraphic" in2="effect1_dropShadow_659_270" result="shape"/>
</filter>
<filter id="filter3_d_659_270" x="370" y="105" width="36" height="36" filterUnits="userSpaceOnUse" color-interpolation-filters="sRGB">
<feFlood flood-opacity="0" result="BackgroundImageFix"/>
<feColorMatrix in="SourceAlpha" type="matrix" values="0 0 0 0 0 0 0 0 0 0 0 0 0 0 0 0 0 0 127 0" result="hardAlpha"/>
<feOffset dy="4"/>
<feGaussianBlur stdDeviation="2"/>
<feComposite in2="hardAlpha" operator="out"/>
<feColorMatrix type="matrix" values="0 0 0 0 0 0 0 0 0 0 0 0 0 0 0 0 0 0 0.25 0"/>
<feBlend mode="normal" in2="BackgroundImageFix" result="effect1_dropShadow_659_270"/>
<feBlend mode="normal" in="SourceGraphic" in2="effect1_dropShadow_659_270" result="shape"/>
</filter>
<filter id="filter4_d_659_270" x="370" y="170" width="36" height="36" filterUnits="userSpaceOnUse" color-interpolation-filters="sRGB">
<feFlood flood-opacity="0" result="BackgroundImageFix"/>
<feColorMatrix in="SourceAlpha" type="matrix" values="0 0 0 0 0 0 0 0 0 0 0 0 0 0 0 0 0 0 127 0" result="hardAlpha"/>
<feOffset dy="4"/>
<feGaussianBlur stdDeviation="2"/>
<feComposite in2="hardAlpha" operator="out"/>
<feColorMatrix type="matrix" values="0 0 0 0 0 0 0 0 0 0 0 0 0 0 0 0 0 0 0.25 0"/>
<feBlend mode="normal" in2="BackgroundImageFix" result="effect1_dropShadow_659_270"/>
<feBlend mode="normal" in="SourceGraphic" in2="effect1_dropShadow_659_270" result="shape"/>
</filter>
<filter id="filter5_d_659_270" x="370" y="223" width="36" height="36" filterUnits="userSpaceOnUse" color-interpolation-filters="sRGB">
<feFlood flood-opacity="0" result="BackgroundImageFix"/>
<feColorMatrix in="SourceAlpha" type="matrix" values="0 0 0 0 0 0 0 0 0 0 0 0 0 0 0 0 0 0 127 0" result="hardAlpha"/>
<feOffset dy="4"/>
<feGaussianBlur stdDeviation="2"/>
<feComposite in2="hardAlpha" operator="out"/>
<feColorMatrix type="matrix" values="0 0 0 0 0 0 0 0 0 0 0 0 0 0 0 0 0 0 0.25 0"/>
<feBlend mode="normal" in2="BackgroundImageFix" result="effect1_dropShadow_659_270"/>
<feBlend mode="normal" in="SourceGraphic" in2="effect1_dropShadow_659_270" result="shape"/>
</filter>
<radialGradient id="paint0_radial_659_270" cx="0" cy="0" r="1" gradientUnits="userSpaceOnUse" gradientTransform="translate(32.5 153.5) rotate(90) scale(153.5 0.5)">
<stop offset="0.8125" stop-color="#485260"/>
<stop offset="1" stop-color="#181B1F" stop-opacity="0"/>
</radialGradient>
<radialGradient id="paint1_radial_659_270" cx="0" cy="0" r="1" gradientUnits="userSpaceOnUse" gradientTransform="translate(184.5 153.5) rotate(90) scale(153.5 0.5)">
<stop offset="0.8125" stop-color="#485260"/>
<stop offset="1" stop-color="#181B1F" stop-opacity="0"/>
</radialGradient>
<radialGradient id="paint2_radial_659_270" cx="0" cy="0" r="1" gradientUnits="userSpaceOnUse" gradientTransform="translate(84.5 153.5) rotate(90) scale(153.5 0.5)">
<stop offset="0.8125" stop-color="#485260"/>
<stop offset="1" stop-color="#181B1F" stop-opacity="0"/>
</radialGradient>
<radialGradient id="paint3_radial_659_270" cx="0" cy="0" r="1" gradientUnits="userSpaceOnUse" gradientTransform="translate(236.5 153.5) rotate(90) scale(153.5 0.5)">
<stop offset="0.8125" stop-color="#485260"/>
<stop offset="1" stop-color="#181B1F" stop-opacity="0"/>
</radialGradient>
<radialGradient id="paint4_radial_659_270" cx="0" cy="0" r="1" gradientUnits="userSpaceOnUse" gradientTransform="translate(336.5 153.5) rotate(90) scale(153.5 0.5)">
<stop offset="0.8125" stop-color="#485260"/>
<stop offset="1" stop-color="#181B1F" stop-opacity="0"/>
</radialGradient>
<radialGradient id="paint5_radial_659_270" cx="0" cy="0" r="1" gradientUnits="userSpaceOnUse" gradientTransform="translate(134.5 159) rotate(90) scale(153.5 0.5)">
<stop offset="0.8125" stop-color="#485260"/>
<stop offset="1" stop-color="#181B1F" stop-opacity="0"/>
</radialGradient>
<radialGradient id="paint6_radial_659_270" cx="0" cy="0" r="1" gradientUnits="userSpaceOnUse" gradientTransform="translate(286.5 159) rotate(90) scale(153.5 0.5)">
<stop offset="0.8125" stop-color="#485260"/>
<stop offset="1" stop-color="#181B1F" stop-opacity="0"/>
</radialGradient>
<radialGradient id="paint7_radial_659_270" cx="0" cy="0" r="1" gradientUnits="userSpaceOnUse" gradientTransform="translate(386.5 159) rotate(90) scale(153.5 0.5)">
<stop offset="0.8125" stop-color="#485260"/>
<stop offset="1" stop-color="#181B1F" stop-opacity="0"/>
</radialGradient>
<radialGradient id="paint8_radial_659_270" cx="0" cy="0" r="1" gradientUnits="userSpaceOnUse" gradientTransform="translate(92 146) rotate(90) scale(88)">
<stop stop-color="#1B1F23" stop-opacity="0"/>
<stop offset="1" stop-color="#1B1F23"/>
</radialGradient>
<linearGradient id="paint9_linear_659_270" x1="226" y1="119.5" x2="229" y2="204" gradientUnits="userSpaceOnUse">
<stop stop-opacity="0"/>
<stop offset="1"/>
</linearGradient>
<linearGradient id="paint10_linear_659_270" x1="274.5" y1="134.5" x2="226" y2="164.216" gradientUnits="userSpaceOnUse">
<stop stop-color="#12AFE4"/>
<stop offset="1" stop-color="#383F4E" stop-opacity="0"/>
</linearGradient>
<clipPath id="clip0_659_270">
<rect width="153" height="83" fill="white" transform="translate(15 101)"/>
</clipPath>
</defs>
</svg>
