<svg width="382" height="382" viewBox="0 0 382 382" fill="none" xmlns="http://www.w3.org/2000/svg">
<g clip-path="url(#clip0_1195_366)" filter="url(#filter0_d_1195_366)">
<g filter="url(#filter1_d_1195_366)">
<ellipse cx="111.977" cy="167" rx="102.385" ry="43.9777" transform="rotate(90 111.977 167)" fill="#D9D9D9"/>
</g>
<g filter="url(#filter2_i_1195_366)">
<rect x="313" y="45" width="244" height="244" rx="24" transform="rotate(90 313 45)" fill="#161A21" stroke="#242931" stroke-width="2"/>
</g>
<path fill-rule="evenodd" clip-rule="evenodd" d="M145.135 177.572C144.066 177.169 140.001 174.845 136.1 172.409C136.1 172.409 131.779 169.709 129.01 167.978C148.54 157.61 171.227 136.869 187.617 108.063C189.037 105.566 191.117 102 191.117 102C191.117 102 192.941 105.566 194.2 108.063C199.652 118.881 203.758 125.826 210.746 134.139C214.011 138.025 220.887 144.632 224.432 147.302L226.764 149.055L224.238 149.371C221.431 149.613 218.839 149.462 217.048 148.665C216.408 148.38 213.573 146.207 210.754 143.84C207.931 141.469 204.959 139.292 204.146 138.998C201.971 138.215 198.257 138.388 196.135 139.375C194.996 139.907 192.227 142.278 188.578 145.861C154.669 179.129 156.328 177.567 150.302 178.632C147.933 178.736 146.579 178.112 145.139 177.572H145.135Z" fill="url(#paint0_linear_1195_366)"/>
<path fill-rule="evenodd" clip-rule="evenodd" d="M203.608 138.839C203.794 138.886 203.972 138.942 204.137 139.003C204.95 139.297 207.921 141.474 210.744 143.845C213.567 146.217 216.399 148.389 217.038 148.67C218.83 149.466 221.426 149.618 224.228 149.375L226.754 149.06L224.422 147.307C220.873 144.641 214.001 138.029 210.736 134.143C203.749 125.831 199.642 118.881 194.19 108.067C192.931 105.57 191.107 102.005 191.107 102.005C191.107 102.005 189.027 105.575 187.607 108.067C171.222 136.874 148.53 157.61 129 167.983C147.824 170.181 153.685 165.676 164.362 155.23C166.562 153.075 168.465 150.899 170.273 148.83C175.494 142.854 179.93 137.774 188.565 136.692C193.802 136.034 201.528 138.215 203.604 138.843L203.608 138.839Z" fill="url(#paint1_linear_1195_366)"/>
<path fill-rule="evenodd" clip-rule="evenodd" d="M236.867 156.428C237.936 156.831 242.001 159.155 245.902 161.591C245.902 161.591 250.223 164.291 252.992 166.022C233.462 176.39 210.775 197.131 194.385 225.937C192.966 228.434 190.885 232 190.885 232C190.885 232 189.061 228.434 187.802 225.937C182.35 215.119 178.244 208.174 171.256 199.861C167.991 195.975 161.115 189.368 157.57 186.698L155.238 184.945L157.764 184.629C160.571 184.387 163.163 184.538 164.954 185.335C165.594 185.62 168.429 187.792 171.248 190.159C174.071 192.531 177.043 194.707 177.856 195.002C180.031 195.785 183.745 195.612 185.867 194.625C187.006 194.093 189.775 191.722 193.424 188.139C227.333 154.871 225.674 156.433 231.7 155.368C234.069 155.264 235.423 155.887 236.863 156.428H236.867Z" fill="url(#paint2_linear_1195_366)"/>
<path fill-rule="evenodd" clip-rule="evenodd" d="M178.392 195.166C178.206 195.118 178.029 195.062 177.863 195.002C177.05 194.707 174.079 192.531 171.256 190.159C168.433 187.788 165.601 185.616 164.962 185.335C163.17 184.538 160.574 184.387 157.772 184.629L155.246 184.945L157.578 186.698C161.127 189.363 167.999 195.975 171.264 199.861C178.251 208.174 182.358 215.124 187.81 225.937C189.069 228.434 190.893 232 190.893 232C190.893 232 192.973 228.43 194.393 225.937C210.778 197.131 233.47 176.394 253 166.022C234.176 163.824 228.315 168.328 217.638 178.774C215.438 180.929 213.535 183.106 211.728 185.174C206.507 191.15 202.07 196.231 193.436 197.312C188.198 197.97 180.472 195.789 178.396 195.162L178.392 195.166Z" fill="url(#paint3_linear_1195_366)"/>
</g>
<defs>
<filter id="filter0_d_1195_366" x="0.400002" y="0.400002" width="381.2" height="381.2" filterUnits="userSpaceOnUse" color-interpolation-filters="sRGB">
<feFlood flood-opacity="0" result="BackgroundImageFix"/>
<feColorMatrix in="SourceAlpha" type="matrix" values="0 0 0 0 0 0 0 0 0 0 0 0 0 0 0 0 0 0 127 0" result="hardAlpha"/>
<feOffset dy="24"/>
<feGaussianBlur stdDeviation="33.8"/>
<feComposite in2="hardAlpha" operator="out"/>
<feColorMatrix type="matrix" values="0 0 0 0 0 0 0 0 0 0 0 0 0 0 0 0 0 0 0.14 0"/>
<feBlend mode="normal" in2="BackgroundImageFix" result="effect1_dropShadow_1195_366"/>
<feBlend mode="normal" in="SourceGraphic" in2="effect1_dropShadow_1195_366" result="shape"/>
</filter>
<filter id="filter1_d_1195_366" x="45.8" y="57.4147" width="132.355" height="249.171" filterUnits="userSpaceOnUse" color-interpolation-filters="sRGB">
<feFlood flood-opacity="0" result="BackgroundImageFix"/>
<feColorMatrix in="SourceAlpha" type="matrix" values="0 0 0 0 0 0 0 0 0 0 0 0 0 0 0 0 0 0 127 0" result="hardAlpha"/>
<feOffset dy="15"/>
<feGaussianBlur stdDeviation="11.1"/>
<feComposite in2="hardAlpha" operator="out"/>
<feColorMatrix type="matrix" values="0 0 0 0 0 0 0 0 0 0 0 0 0 0 0 0 0 0 0.46 0"/>
<feBlend mode="normal" in2="BackgroundImageFix" result="effect1_dropShadow_1195_366"/>
<feBlend mode="normal" in="SourceGraphic" in2="effect1_dropShadow_1195_366" result="shape"/>
</filter>
<filter id="filter2_i_1195_366" x="68" y="44" width="246" height="247.6" filterUnits="userSpaceOnUse" color-interpolation-filters="sRGB">
<feFlood flood-opacity="0" result="BackgroundImageFix"/>
<feBlend mode="normal" in="SourceGraphic" in2="BackgroundImageFix" result="shape"/>
<feColorMatrix in="SourceAlpha" type="matrix" values="0 0 0 0 0 0 0 0 0 0 0 0 0 0 0 0 0 0 127 0" result="hardAlpha"/>
<feOffset dy="2"/>
<feGaussianBlur stdDeviation="0.8"/>
<feComposite in2="hardAlpha" operator="arithmetic" k2="-1" k3="1"/>
<feColorMatrix type="matrix" values="0 0 0 0 0.403922 0 0 0 0 0.403922 0 0 0 0 0.403922 0 0 0 0.38 0"/>
<feBlend mode="normal" in2="shape" result="effect1_innerShadow_1195_366"/>
</filter>
<linearGradient id="paint0_linear_1195_366" x1="201.674" y1="120.252" x2="156.234" y2="186.737" gradientUnits="userSpaceOnUse">
<stop stop-color="#9D4EDD"/>
<stop offset="0.52" stop-color="#B15AEF"/>
<stop offset="0.73" stop-color="#C77DFF"/>
<stop offset="1" stop-color="#CFA1FF"/>
</linearGradient>
<linearGradient id="paint1_linear_1195_366" x1="201.673" y1="120.253" x2="156.232" y2="186.738" gradientUnits="userSpaceOnUse">
<stop stop-color="#CFA1FF"/>
<stop offset="0.27" stop-color="#C77DFF"/>
<stop offset="0.48" stop-color="#B15AEF"/>
<stop offset="1" stop-color="#6A25B9"/>
</linearGradient>
<linearGradient id="paint2_linear_1195_366" x1="180.328" y1="213.747" x2="225.768" y2="147.263" gradientUnits="userSpaceOnUse">
<stop stop-color="#6A25B9"/>
<stop offset="0.52" stop-color="#B15AEF"/>
<stop offset="0.73" stop-color="#C77DFF"/>
<stop offset="1" stop-color="#BEA2CD"/>
</linearGradient>
<linearGradient id="paint3_linear_1195_366" x1="180.327" y1="213.747" x2="225.768" y2="147.263" gradientUnits="userSpaceOnUse">
<stop stop-color="#CFA1FF"/>
<stop offset="0.27" stop-color="#C77DFF"/>
<stop offset="0.48" stop-color="#B15AEF"/>
<stop offset="1" stop-color="#6A25B9"/>
</linearGradient>
<clipPath id="clip0_1195_366">
<rect width="246" height="246" fill="white" transform="translate(314 44) rotate(90)"/>
</clipPath>
</defs>
</svg>
