<svg width="124" height="130" viewBox="0 0 124 130" fill="none" xmlns="http://www.w3.org/2000/svg">
<path fill-rule="evenodd" clip-rule="evenodd" d="M16.1349 75.5716C15.066 75.1691 11.0006 72.8454 7.10039 70.4091C7.10039 70.4091 2.77915 67.7089 0.00976562 65.978C19.5399 55.6098 42.2274 34.8692 58.6168 6.06251C60.0365 3.56567 62.1167 0 62.1167 0C62.1167 0 63.9409 3.56567 65.1997 6.06251C70.6518 16.8807 74.7584 23.826 81.7459 32.1387C85.0105 36.0246 91.8866 42.6323 95.4319 45.3023L97.7638 47.0548L95.2379 47.3707C92.4314 47.613 89.8394 47.4616 88.0482 46.6654C87.4085 46.3798 84.5731 44.2075 81.7542 41.8404C78.9311 39.4691 75.9595 37.2925 75.1464 36.9982C72.9714 36.215 69.2568 36.3881 67.1354 37.3747C65.9963 37.907 63.2269 40.2783 59.5784 43.8613C25.6689 77.1294 27.3281 75.5673 21.3023 76.6318C18.9332 76.7356 17.5795 76.1125 16.1391 75.5716H16.1349Z" fill="url(#paint0_linear_1135_433)"/>
<path fill-rule="evenodd" clip-rule="evenodd" d="M74.6084 36.8386C74.7941 36.8862 74.9716 36.9424 75.1367 37.003C75.9497 37.2972 78.9213 39.4739 81.7444 41.8452C84.5674 44.2166 87.3987 46.3889 88.0385 46.6701C89.8297 47.4663 92.4257 47.6178 95.2281 47.3755L97.754 47.0596L95.4221 45.307C91.8727 42.6414 85.0008 36.0293 81.7361 32.1435C74.7487 23.8308 70.6421 16.8811 65.19 6.06728C63.9312 3.57044 62.1069 0.00476074 62.1069 0.00476074C62.1069 0.00476074 60.0268 3.57477 58.607 6.06728C42.2218 34.874 19.5302 55.6103 0 65.9828C18.8244 68.181 24.6851 63.6763 35.3623 53.2303C37.5621 51.0753 39.4648 48.8987 41.2725 46.8302C46.4935 40.8543 50.9303 35.774 59.5645 34.6922C64.802 34.0345 72.5282 36.2154 74.6042 36.8429L74.6084 36.8386Z" fill="url(#paint1_linear_1135_433)"/>
<path fill-rule="evenodd" clip-rule="evenodd" d="M107.867 54.4283C108.936 54.8307 113.001 57.1545 116.902 59.5908C116.902 59.5908 121.223 62.291 123.992 64.0219C104.462 74.3901 81.7746 95.1307 65.3853 123.937C63.9655 126.434 61.8854 130 61.8854 130C61.8854 130 60.0611 126.434 58.8023 123.937C53.3502 113.119 49.2436 106.174 42.2562 97.8612C38.9915 93.9753 32.1155 87.3675 28.5702 84.6976L26.2383 82.9451L28.7642 82.6292C31.5707 82.3869 34.1626 82.5383 35.9538 83.3345C36.5936 83.6201 39.429 85.7924 42.2479 88.1594C45.0709 90.5308 48.0426 92.7074 48.8556 93.0017C51.0307 93.7849 54.7452 93.6118 56.8666 92.6252C58.0058 92.0929 60.7751 89.7216 64.4236 86.1386C98.3332 52.8705 96.674 54.4326 102.7 53.3681C105.069 53.2643 106.423 53.8874 107.863 54.4283H107.867Z" fill="url(#paint2_linear_1135_433)"/>
<path fill-rule="evenodd" clip-rule="evenodd" d="M49.3917 93.1661C49.206 93.1185 49.0285 93.0622 48.8634 93.0017C48.0504 92.7074 45.0788 90.5308 42.2557 88.1594C39.4327 85.7881 36.6014 83.6158 35.9616 83.3345C34.1704 82.5383 31.5744 82.3868 28.772 82.6292L26.2461 82.9451L28.578 84.6976C32.1274 87.3632 38.9993 93.9753 42.264 97.8612C49.2514 106.174 53.358 113.124 58.8101 123.937C60.0689 126.434 61.8932 130 61.8932 130C61.8932 130 63.9733 126.43 65.3931 123.937C81.7783 95.1307 104.47 74.3944 124 64.0219C105.176 61.8236 99.315 66.3283 88.6378 76.7744C86.438 78.9294 84.5353 81.106 82.7276 83.1744C77.5066 89.1504 73.0698 94.2306 64.4356 95.3124C59.1981 95.9702 51.4719 93.7892 49.3959 93.1618L49.3917 93.1661Z" fill="url(#paint3_linear_1135_433)"/>
<defs>
<linearGradient id="paint0_linear_1135_433" x1="72.6742" y1="18.2525" x2="27.234" y2="84.7373" gradientUnits="userSpaceOnUse">
<stop stop-color="#9D4EDD"/>
<stop offset="0.52" stop-color="#B15AEF"/>
<stop offset="0.73" stop-color="#C77DFF"/>
<stop offset="1" stop-color="#CFA1FF"/>
</linearGradient>
<linearGradient id="paint1_linear_1135_433" x1="72.6727" y1="18.2529" x2="27.2325" y2="84.7378" gradientUnits="userSpaceOnUse">
<stop stop-color="#CFA1FF"/>
<stop offset="0.27" stop-color="#C77DFF"/>
<stop offset="0.48" stop-color="#B15AEF"/>
<stop offset="1" stop-color="#6A25B9"/>
</linearGradient>
<linearGradient id="paint2_linear_1135_433" x1="51.3279" y1="111.747" x2="96.7681" y2="45.2626" gradientUnits="userSpaceOnUse">
<stop stop-color="#6A25B9"/>
<stop offset="0.52" stop-color="#B15AEF"/>
<stop offset="0.73" stop-color="#C77DFF"/>
<stop offset="1" stop-color="#BEA2CD"/>
</linearGradient>
<linearGradient id="paint3_linear_1135_433" x1="51.3274" y1="111.747" x2="96.7676" y2="45.2626" gradientUnits="userSpaceOnUse">
<stop stop-color="#CFA1FF"/>
<stop offset="0.27" stop-color="#C77DFF"/>
<stop offset="0.48" stop-color="#B15AEF"/>
<stop offset="1" stop-color="#6A25B9"/>
</linearGradient>
</defs>
</svg>
