<svg width="37" height="37" viewBox="0 0 37 37" fill="none" xmlns="http://www.w3.org/2000/svg">
<g clip-path="url(#clip0_519_1549)">
<path d="M18.5018 34.9294L25.8316 33.0784C30.0155 29.6043 32.6803 24.3642 32.6803 18.501C32.6803 9.45741 26.3418 1.89431 17.865 0.0117188C7.94178 0.346381 0 8.49621 0 18.501C0 23.6399 2.0957 28.289 5.4786 31.6414L18.5018 34.9294Z" fill="#CBE2FF"/>
<path d="M32.2967 18.5C32.2967 24.5642 29.3785 29.9462 24.8703 33.3202L31.521 31.6406C34.9041 28.2882 37.0002 23.6391 37.0002 18.5C37.0002 8.28273 28.7175 0 18.5002 0C17.7035 0 16.9186 0.0504414 16.1484 0.148145C25.2553 1.30353 32.2967 9.07945 32.2967 18.5Z" fill="#BED8FB"/>
<path d="M23.0965 7.00574C23.0965 6.06087 22.3306 5.29492 21.3857 5.29492H15.4901C13.3156 5.29492 11.5527 7.05777 11.5527 9.23231V13.6039H25.4428V9.29432C25.4428 8.34945 24.6769 7.5835 23.732 7.5835H23.6744C23.3552 7.5835 23.0965 7.32486 23.0965 7.00574Z" fill="#365E7D"/>
<path d="M23.733 7.58357H23.6753C23.3562 7.58357 23.0975 7.32486 23.0975 7.00574C23.0975 6.06086 22.3315 5.29492 21.3866 5.29492H20.7402V13.6039H25.4437V9.29432C25.4438 8.34959 24.6778 7.58357 23.733 7.58357Z" fill="#2B4D66"/>
<path d="M30.7158 26.9074C30.2635 26.4606 29.704 26.1151 29.0689 25.9141L24.0181 24.315L18.5008 24.1211L12.9811 24.315L7.93043 25.9141C6.22178 26.4551 5.06055 28.0407 5.06055 29.833V31.2128C8.29725 34.633 12.8256 36.8183 17.8648 36.9883C23.5108 35.7343 28.2081 31.9603 30.7158 26.9074Z" fill="#4A80AA"/>
<path d="M31.9388 31.2136V29.8338C31.9388 28.5665 31.3578 27.4031 30.4137 26.6387C27.7318 32.1038 22.434 36.0526 16.1523 36.851C16.9106 36.9471 17.6828 36.9983 18.4667 36.9997C19.2199 36.9985 19.9632 36.9549 20.6942 36.8709C25.1047 36.3497 29.0398 34.277 31.9388 31.2136Z" fill="#407093"/>
<path d="M18.9191 36.7226C20.0385 34.5004 22.9532 28.1905 22.122 24.249L18.5014 22.8398L14.8775 24.249C14.0207 28.3122 17.1444 34.8921 18.1786 36.9165C18.4274 36.8568 18.6743 36.7921 18.9191 36.7226Z" fill="#E4F6FF"/>
<path d="M20.8257 34.9608L19.3577 29.1855H17.6402L16.1758 34.945L17.9866 36.961C18.4463 36.8557 18.8996 36.7337 19.3459 36.5956L20.8257 34.9608Z" fill="#E28086"/>
<path d="M18.0151 36.9927C18.1651 36.9966 18.3153 36.9993 18.4661 36.9995C18.6407 36.9993 18.8146 36.9962 18.988 36.9914L19.9208 35.9609C19.1866 36.2185 18.4314 36.4311 17.6582 36.5954L18.0151 36.9927Z" fill="#DD636E"/>
<path d="M21.5907 23.7157V20.459H15.4062V23.7157C15.4062 25.4235 18.4985 27.289 18.4985 27.289C18.4985 27.289 21.5907 25.4235 21.5907 23.7157Z" fill="#FFDDCE"/>
<path d="M25.4428 13.0294H24.2606C23.6032 13.0294 23.0702 12.4965 23.0702 11.839V11.1875C23.0702 10.3311 22.2323 9.7256 21.4192 9.99435C19.5227 10.6212 17.475 10.6213 15.5784 9.99479L15.5762 9.99406C14.7631 9.72545 13.9253 10.331 13.9253 11.1873V11.8391C13.9253 12.4965 13.3923 13.0295 12.7349 13.0295H11.5527V14.9762C11.5527 15.4736 11.956 15.8769 12.4535 15.8769C12.6104 15.8769 12.7381 15.9998 12.748 16.1565C12.9379 19.1677 15.4388 21.5514 18.4978 21.5514C21.5568 21.5514 24.0577 19.1677 24.2476 16.1565C24.2575 15.9999 24.3852 15.8769 24.5422 15.8769C25.0396 15.8769 25.4429 15.4737 25.4429 14.9762V13.0294H25.4428Z" fill="#FFDDCE"/>
<path d="M24.2612 13.0292C23.6037 13.0292 23.0707 12.4962 23.0707 11.8388V11.1873C23.0707 10.3309 22.2328 9.72537 21.4197 9.99412C21.1951 10.0683 20.9683 10.1331 20.7399 10.1897V16.6194C20.7082 18.7113 19.562 20.532 17.8691 21.5159C18.0759 21.5384 18.2856 21.5511 18.4983 21.5511C21.5573 21.5511 24.0582 19.1673 24.2481 16.1561C24.258 15.9995 24.3857 15.8765 24.5427 15.8765C25.0401 15.8765 25.4434 15.4733 25.4434 14.9758V13.0291L24.2612 13.0292Z" fill="#FFCBBE"/>
<path d="M15.4056 22.8398L12.9805 24.8103L15.5236 27.9548C15.833 28.256 16.3199 28.2745 16.6513 27.9977L18.5639 26.4002L15.4056 22.8398Z" fill="#F4FBFF"/>
<path d="M21.5918 22.8398L18.5645 26.4002L20.362 27.9371C20.6913 28.2186 21.1805 28.2045 21.493 27.9044L24.018 24.8103L21.5918 22.8398Z" fill="#F4FBFF"/>
<path d="M15.4062 22.8398L11.8467 24.5886C11.5757 24.7217 11.4669 25.0514 11.6053 25.3197L12.3026 26.6718C12.4834 27.0221 12.4167 27.4491 12.1377 27.7276C11.9941 27.8709 11.8386 28.0261 11.7039 28.1607C11.4626 28.4015 11.376 28.7572 11.4822 29.0811C12.3242 31.6478 16.3764 35.5726 17.91 36.9926C18.0131 36.9954 18.1164 36.9973 18.22 36.9984C17.1079 34.8353 13.167 26.6171 15.4062 22.8398Z" fill="#365E7D"/>
<path d="M24.8606 27.7275C24.5816 27.449 24.5149 27.0221 24.6957 26.6717L25.393 25.3196C25.5314 25.0513 25.4226 24.7216 25.1516 24.5885L21.5921 22.8398C23.8307 26.6161 19.8926 34.8308 18.7793 36.9967C18.8839 36.9949 18.9884 36.9923 19.0926 36.9888C20.6293 35.5655 24.6749 31.6455 25.5161 29.0812C25.6223 28.7573 25.5357 28.4016 25.2945 28.1608C25.1597 28.0261 25.0042 27.8708 24.8606 27.7275Z" fill="#365E7D"/>
<path d="M18.5649 26.4004L16.6816 27.9732L17.6412 29.1859H19.3587L20.3183 27.9016L18.5649 26.4004Z" fill="#DD636E"/>
</g>
<defs>
<clipPath id="clip0_519_1549">
<rect width="37" height="37" fill="white"/>
</clipPath>
</defs>
</svg>
